<?xml version="1.0" encoding="UTF-8" standalone="no"?>
<!DOCTYPE svg PUBLIC "-//W3C//DTD SVG 1.1//EN"
 "http://www.w3.org/Graphics/SVG/1.1/DTD/svg11.dtd">
<!-- Generated by graphviz version 2.40.1 (20161225.0304)
 -->
<!-- Title: G Pages: 1 -->
<svg width="1433pt" height="1176pt"
 viewBox="0.00 0.00 1433.00 1176.00" xmlns="http://www.w3.org/2000/svg" xmlns:xlink="http://www.w3.org/1999/xlink">
<g id="graph0" class="graph" transform="scale(1 1) rotate(0) translate(4 1172)">
<title>G</title>
<!-- Expand\nSCOTUS -->
<g id="node1" class="node">
<title>Expand\nSCOTUS</title>
<ellipse fill="#ffffff" stroke="#ffd700" stroke-width="3" cx="267" cy="-689" rx="83" ry="83"/>
<text text-anchor="middle" x="267" y="-695" font-family="garamond" font-size="20.00" fill="#000000">Expand</text>
<text text-anchor="middle" x="267" y="-673" font-family="garamond" font-size="20.00" fill="#000000">SCOTUS</text>
</g>
<!-- Restore the\nVoting Rights Act -->
<g id="node14" class="node">
<title>Restore the\nVoting Rights Act</title>
<g id="a_node14"><a xlink:href="https://www.brennancenter.org/our-work/research-reports/how-we-can-restore-voting-rights-act" xlink:title="Restore the\nVoting Rights Act" target="new">
<ellipse fill="#ffffff" stroke="#ffd700" stroke-width="3" cx="267" cy="-285" rx="83" ry="83"/>
<text text-anchor="middle" x="267" y="-291" font-family="garamond" font-size="20.00" fill="#000000">Restore the</text>
<text text-anchor="middle" x="267" y="-269" font-family="garamond" font-size="20.00" fill="#000000">Voting Rights Act</text>
</a>
</g>
</g>
<!-- Expand\nSCOTUS&#45;&gt;Restore the\nVoting Rights Act -->
<g id="edge6" class="edge">
<title>Expand\nSCOTUS&#45;&gt;Restore the\nVoting Rights Act</title>
<path fill="none" stroke="#000000" d="M267,-605.7808C267,-539.6484 267,-447.1722 267,-378.4932"/>
<polygon fill="#000000" stroke="#000000" points="270.5001,-378.1112 267,-368.1112 263.5001,-378.1113 270.5001,-378.1112"/>
</g>
<!-- Undo\nCitizen&#39;s United -->
<g id="node16" class="node">
<title>Undo\nCitizen&#39;s United</title>
<polygon fill="#ffffff" stroke="#000000" stroke-width="2" points="188,-541 80,-541 80,-433 188,-433 188,-541"/>
<text text-anchor="middle" x="134" y="-492.2" font-family="garamond" font-size="16.00" fill="#000000">Undo</text>
<text text-anchor="middle" x="134" y="-474.2" font-family="garamond" font-size="16.00" fill="#000000">Citizen&#39;s United</text>
</g>
<!-- Expand\nSCOTUS&#45;&gt;Undo\nCitizen&#39;s United -->
<g id="edge5" class="edge">
<title>Expand\nSCOTUS&#45;&gt;Undo\nCitizen&#39;s United</title>
<path fill="none" stroke="#000000" d="M221.2289,-619.4831C206.2374,-596.714 189.6843,-571.5731 175.0629,-549.3662"/>
<polygon fill="#000000" stroke="#000000" points="177.9835,-547.4374 169.561,-541.0099 172.137,-551.2869 177.9835,-547.4374"/>
</g>
<!-- SCOTUS\nterm limits -->
<g id="node2" class="node">
<title>SCOTUS\nterm limits</title>
<ellipse fill="#ffffff" stroke="#ffd700" stroke-width="3" cx="974" cy="-83" rx="83" ry="83"/>
<text text-anchor="middle" x="974" y="-89" font-family="garamond" font-size="20.00" fill="#000000">SCOTUS</text>
<text text-anchor="middle" x="974" y="-67" font-family="garamond" font-size="20.00" fill="#000000">term limits</text>
</g>
<!-- Expand\nFederal Courts -->
<g id="node3" class="node">
<title>Expand\nFederal Courts</title>
<ellipse fill="#ffffff" stroke="#ffd700" stroke-width="3" cx="635" cy="-689" rx="83" ry="83"/>
<text text-anchor="middle" x="635" y="-695" font-family="garamond" font-size="20.00" fill="#000000">Expand</text>
<text text-anchor="middle" x="635" y="-673" font-family="garamond" font-size="20.00" fill="#000000">Federal Courts</text>
</g>
<!-- Campaign Finance\nReform -->
<g id="node4" class="node">
<title>Campaign Finance\nReform</title>
<ellipse fill="#ffffff" stroke="#ffd700" stroke-width="3" cx="83" cy="-285" rx="83" ry="83"/>
<text text-anchor="middle" x="83" y="-291" font-family="garamond" font-size="20.00" fill="#000000">Campaign Finance</text>
<text text-anchor="middle" x="83" y="-269" font-family="garamond" font-size="20.00" fill="#000000">Reform</text>
</g>
<!-- Federal Laws for\nGerrymandering -->
<g id="node5" class="node">
<title>Federal Laws for\nGerrymandering</title>
<g id="a_node5"><a xlink:href="https://democraticredistricting.com/" xlink:title="Federal Laws for\nGerrymandering" target="new">
<ellipse fill="#ffffff" stroke="#ffd700" stroke-width="3" cx="1003" cy="-285" rx="83" ry="83"/>
<text text-anchor="middle" x="1003" y="-291" font-family="garamond" font-size="20.00" fill="#000000">Federal Laws for</text>
<text text-anchor="middle" x="1003" y="-269" font-family="garamond" font-size="20.00" fill="#000000">Gerrymandering</text>
</a>
</g>
</g>
<!-- State Laws for\nGerrymandering -->
<g id="node6" class="node">
<title>State Laws for\nGerrymandering</title>
<g id="a_node6"><a xlink:href="https://democraticredistricting.com/" xlink:title="State Laws for\nGerrymandering" target="new">
<ellipse fill="#ffffff" stroke="#ffd700" stroke-width="3" cx="974" cy="-689" rx="83" ry="83"/>
<text text-anchor="middle" x="974" y="-695" font-family="garamond" font-size="20.00" fill="#000000">State Laws for</text>
<text text-anchor="middle" x="974" y="-673" font-family="garamond" font-size="20.00" fill="#000000">Gerrymandering</text>
</a>
</g>
</g>
<!-- National\nPopular Vote\nInterstate Compact -->
<g id="node7" class="node">
<title>National\nPopular Vote\nInterstate Compact</title>
<g id="a_node7"><a xlink:href="https://www.nationalpopularvote.com/written-explanation" xlink:title="National\nPopular Vote\nInterstate Compact" target="new">
<ellipse fill="#ffffff" stroke="#ffd700" stroke-width="3" cx="1298" cy="-487" rx="83" ry="83"/>
<text text-anchor="middle" x="1298" y="-504" font-family="garamond" font-size="20.00" fill="#000000">National</text>
<text text-anchor="middle" x="1298" y="-482" font-family="garamond" font-size="20.00" fill="#000000">Popular Vote</text>
<text text-anchor="middle" x="1298" y="-460" font-family="garamond" font-size="20.00" fill="#000000">Interstate Compact</text>
</a>
</g>
</g>
<!-- National\nPopular Vote -->
<g id="node8" class="node">
<title>National\nPopular Vote</title>
<g id="a_node8"><a xlink:href="https://en.wikipedia.org/wiki/Electoral_College_abolition_amendment" xlink:title="National\nPopular Vote" target="new">
<ellipse fill="#ffffff" stroke="#ffd700" stroke-width="3" cx="1158" cy="-83" rx="83" ry="83"/>
<text text-anchor="middle" x="1158" y="-89" font-family="garamond" font-size="20.00" fill="#000000">National</text>
<text text-anchor="middle" x="1158" y="-67" font-family="garamond" font-size="20.00" fill="#000000">Popular Vote</text>
</a>
</g>
</g>
<!-- Statehood for\nTerritories -->
<g id="node9" class="node">
<title>Statehood for\nTerritories</title>
<ellipse fill="#ffffff" stroke="#ffd700" stroke-width="3" cx="451" cy="-285" rx="83" ry="83"/>
<text text-anchor="middle" x="451" y="-291" font-family="garamond" font-size="20.00" fill="#000000">Statehood for</text>
<text text-anchor="middle" x="451" y="-269" font-family="garamond" font-size="20.00" fill="#000000">Territories</text>
</g>
<!-- Statehood for\nDC -->
<g id="node10" class="node">
<title>Statehood for\nDC</title>
<ellipse fill="#ffffff" stroke="#ffd700" stroke-width="3" cx="635" cy="-285" rx="83" ry="83"/>
<text text-anchor="middle" x="635" y="-291" font-family="garamond" font-size="20.00" fill="#000000">Statehood for</text>
<text text-anchor="middle" x="635" y="-269" font-family="garamond" font-size="20.00" fill="#000000">DC</text>
</g>
<!-- Reform\nSenate -->
<g id="node11" class="node">
<title>Reform\nSenate</title>
<ellipse fill="#ffffff" stroke="#ffd700" stroke-width="3" cx="1342" cy="-83" rx="83" ry="83"/>
<text text-anchor="middle" x="1342" y="-89" font-family="garamond" font-size="20.00" fill="#000000">Reform</text>
<text text-anchor="middle" x="1342" y="-67" font-family="garamond" font-size="20.00" fill="#000000">Senate</text>
</g>
<!-- Abolish\nFilibuster -->
<g id="node12" class="node">
<title>Abolish\nFilibuster</title>
<ellipse fill="#ffffff" stroke="#ffd700" stroke-width="3" cx="451" cy="-689" rx="83" ry="83"/>
<text text-anchor="middle" x="451" y="-695" font-family="garamond" font-size="20.00" fill="#000000">Abolish</text>
<text text-anchor="middle" x="451" y="-673" font-family="garamond" font-size="20.00" fill="#000000">Filibuster</text>
</g>
<!-- Ability to\nPass Legislation -->
<g id="node15" class="node">
<title>Ability to\nPass Legislation</title>
<polygon fill="#ffffff" stroke="#000000" stroke-width="2" points="597,-541 489,-541 489,-433 597,-433 597,-541"/>
<text text-anchor="middle" x="543" y="-492.2" font-family="garamond" font-size="16.00" fill="#000000">Ability to</text>
<text text-anchor="middle" x="543" y="-474.2" font-family="garamond" font-size="16.00" fill="#000000">Pass Legislation</text>
</g>
<!-- Abolish\nFilibuster&#45;&gt;Ability to\nPass Legislation -->
<g id="edge8" class="edge">
<title>Abolish\nFilibuster&#45;&gt;Ability to\nPass Legislation</title>
<path fill="none" stroke="#000000" d="M485.5192,-613.2079C494.9386,-592.5261 505.0442,-570.3377 514.1144,-550.4227"/>
<polygon fill="#000000" stroke="#000000" points="517.3794,-551.6981 518.3391,-541.1468 511.009,-548.7967 517.3794,-551.6981"/>
</g>
<!-- Expand\nHouse -->
<g id="node13" class="node">
<title>Expand\nHouse</title>
<g id="a_node13"><a xlink:href="https://www.reddit.com/r/UncapTheHouse/comments/ekv0w7/welcome_to_runcapthehouse_click_here_for_more/" xlink:title="Expand\nHouse" target="new">
<ellipse fill="#ffffff" stroke="#ffd700" stroke-width="3" cx="819" cy="-285" rx="83" ry="83"/>
<text text-anchor="middle" x="819" y="-291" font-family="garamond" font-size="20.00" fill="#000000">Expand</text>
<text text-anchor="middle" x="819" y="-269" font-family="garamond" font-size="20.00" fill="#000000">House</text>
</a>
</g>
</g>
<!-- Ability to\nPass Legislation&#45;&gt;Campaign Finance\nReform -->
<g id="edge14" class="edge">
<title>Ability to\nPass Legislation&#45;&gt;Campaign Finance\nReform</title>
<path fill="none" stroke="#000000" d="M488.9037,-476.9678C414.4522,-461.5495 277.9387,-427.4025 175,-368 166.2459,-362.9483 157.6062,-356.9551 149.3337,-350.5362"/>
<polygon fill="#000000" stroke="#000000" points="151.513,-347.7974 141.5232,-344.2683 147.1318,-353.2569 151.513,-347.7974"/>
</g>
<!-- Ability to\nPass Legislation&#45;&gt;Federal Laws for\nGerrymandering -->
<g id="edge17" class="edge">
<title>Ability to\nPass Legislation&#45;&gt;Federal Laws for\nGerrymandering</title>
<path fill="none" stroke="#000000" d="M597.0963,-476.9678C671.5478,-461.5495 808.0613,-427.4025 911,-368 919.7541,-362.9483 928.3938,-356.9551 936.6663,-350.5362"/>
<polygon fill="#000000" stroke="#000000" points="938.8682,-353.2569 944.4768,-344.2683 934.487,-347.7974 938.8682,-353.2569"/>
</g>
<!-- Ability to\nPass Legislation&#45;&gt;Statehood for\nTerritories -->
<g id="edge18" class="edge">
<title>Ability to\nPass Legislation&#45;&gt;Statehood for\nTerritories</title>
<path fill="none" stroke="#000000" d="M518.3457,-432.8677C509.5364,-413.5256 499.3852,-391.237 489.6801,-369.928"/>
<polygon fill="#000000" stroke="#000000" points="492.7367,-368.1949 485.4066,-360.545 486.3663,-371.0963 492.7367,-368.1949"/>
</g>
<!-- Ability to\nPass Legislation&#45;&gt;Statehood for\nDC -->
<g id="edge15" class="edge">
<title>Ability to\nPass Legislation&#45;&gt;Statehood for\nDC</title>
<path fill="none" stroke="#000000" d="M567.6543,-432.8677C576.4636,-413.5256 586.6148,-391.237 596.3199,-369.928"/>
<polygon fill="#000000" stroke="#000000" points="599.6337,-371.0963 600.5934,-360.545 593.2633,-368.1949 599.6337,-371.0963"/>
</g>
<!-- Ability to\nPass Legislation&#45;&gt;Expand\nHouse -->
<g id="edge16" class="edge">
<title>Ability to\nPass Legislation&#45;&gt;Expand\nHouse</title>
<path fill="none" stroke="#000000" d="M597.2774,-455.0646C634.7579,-432.2579 685.1841,-400.0565 727,-368 734.8746,-361.9633 742.8982,-355.4074 750.7614,-348.7155"/>
<polygon fill="#000000" stroke="#000000" points="753.2712,-351.1729 758.5598,-341.9924 748.7005,-345.8712 753.2712,-351.1729"/>
</g>
<!-- Ability to\nPass Legislation&#45;&gt;Restore the\nVoting Rights Act -->
<g id="edge19" class="edge">
<title>Ability to\nPass Legislation&#45;&gt;Restore the\nVoting Rights Act</title>
<path fill="none" stroke="#000000" d="M488.7226,-455.0646C451.2421,-432.2579 400.8159,-400.0565 359,-368 351.1254,-361.9633 343.1018,-355.4074 335.2386,-348.7155"/>
<polygon fill="#000000" stroke="#000000" points="337.2995,-345.8712 327.4402,-341.9924 332.7288,-351.1729 337.2995,-345.8712"/>
</g>
<!-- Undo\nCitizen&#39;s United&#45;&gt;Campaign Finance\nReform -->
<g id="edge1" class="edge">
<title>Undo\nCitizen&#39;s United&#45;&gt;Campaign Finance\nReform</title>
<path fill="none" stroke="#000000" d="M120.3329,-432.8677C115.8653,-415.1723 110.7749,-395.0106 105.821,-375.389"/>
<polygon fill="#000000" stroke="#000000" points="109.167,-374.3436 103.3254,-365.5046 102.3799,-376.0572 109.167,-374.3436"/>
</g>
<!-- Federal Trifecta -->
<g id="node17" class="node">
<title>Federal Trifecta</title>
<polygon fill="#ffffff" stroke="#000000" stroke-width="2" points="844,-743 736,-743 736,-635 844,-635 844,-743"/>
<text text-anchor="middle" x="790" y="-685.2" font-family="garamond" font-size="16.00" fill="#000000">Federal Trifecta</text>
</g>
<!-- Federal Trifecta&#45;&gt;Ability to\nPass Legislation -->
<g id="edge7" class="edge">
<title>Federal Trifecta&#45;&gt;Ability to\nPass Legislation</title>
<path fill="none" stroke="#000000" d="M753.2589,-634.8614C745.202,-624.7194 736.2846,-614.6115 727,-606 690.5906,-572.2299 643.4715,-541.9586 606.031,-520.3983"/>
<polygon fill="#000000" stroke="#000000" points="607.6454,-517.2899 597.2235,-515.3835 604.1819,-523.373 607.6454,-517.2899"/>
</g>
<!-- Constitutional\nConvention -->
<g id="node18" class="node">
<title>Constitutional\nConvention</title>
<polygon fill="#ffffff" stroke="#000000" stroke-width="2" points="1212,-339 1104,-339 1104,-231 1212,-231 1212,-339"/>
<text text-anchor="middle" x="1158" y="-290.2" font-family="garamond" font-size="16.00" fill="#000000">Constitutional</text>
<text text-anchor="middle" x="1158" y="-272.2" font-family="garamond" font-size="16.00" fill="#000000">Convention</text>
</g>
<!-- Constitutional\nConvention&#45;&gt;SCOTUS\nterm limits -->
<g id="edge3" class="edge">
<title>Constitutional\nConvention&#45;&gt;SCOTUS\nterm limits</title>
<path fill="none" stroke="#000000" d="M1118.778,-230.9607C1111.1364,-221.1226 1103.0058,-211.1004 1095,-202 1078.7378,-183.5143 1060.1999,-164.4175 1042.6046,-147.0782"/>
<polygon fill="#000000" stroke="#000000" points="1044.7251,-144.2561 1035.1308,-139.7616 1039.8282,-149.2582 1044.7251,-144.2561"/>
</g>
<!-- Constitutional\nConvention&#45;&gt;National\nPopular Vote -->
<g id="edge2" class="edge">
<title>Constitutional\nConvention&#45;&gt;National\nPopular Vote</title>
<path fill="none" stroke="#000000" d="M1158,-230.8677C1158,-214.0273 1158,-194.9532 1158,-176.2368"/>
<polygon fill="#000000" stroke="#000000" points="1161.5001,-176.1951 1158,-166.1951 1154.5001,-176.1952 1161.5001,-176.1951"/>
</g>
<!-- Constitutional\nConvention&#45;&gt;Reform\nSenate -->
<g id="edge4" class="edge">
<title>Constitutional\nConvention&#45;&gt;Reform\nSenate</title>
<path fill="none" stroke="#000000" d="M1207.3086,-230.8677C1229.3989,-206.6164 1255.7086,-177.733 1279.1885,-151.9561"/>
<polygon fill="#000000" stroke="#000000" points="1281.9058,-154.1705 1286.0523,-144.4208 1276.7308,-149.4567 1281.9058,-154.1705"/>
</g>
<!-- More\nState Trifectas -->
<g id="node19" class="node">
<title>More\nState Trifectas</title>
<polygon fill="#ffffff" stroke="#000000" stroke-width="2" points="1028,-916 920,-916 920,-808 1028,-808 1028,-916"/>
<text text-anchor="middle" x="974" y="-867.2" font-family="garamond" font-size="16.00" fill="#000000">More</text>
<text text-anchor="middle" x="974" y="-849.2" font-family="garamond" font-size="16.00" fill="#000000">State Trifectas</text>
</g>
<!-- More\nState Trifectas&#45;&gt;State Laws for\nGerrymandering -->
<g id="edge22" class="edge">
<title>More\nState Trifectas&#45;&gt;State Laws for\nGerrymandering</title>
<path fill="none" stroke="#000000" d="M974,-807.7364C974,-799.617 974,-791.0554 974,-782.4012"/>
<polygon fill="#000000" stroke="#000000" points="977.5001,-782.2201 974,-772.2201 970.5001,-782.2202 977.5001,-782.2201"/>
</g>
<!-- Majority\nState Trifectas -->
<g id="node20" class="node">
<title>Majority\nState Trifectas</title>
<polygon fill="#ffffff" stroke="#000000" stroke-width="2" points="1197,-743 1089,-743 1089,-635 1197,-635 1197,-743"/>
<text text-anchor="middle" x="1143" y="-694.2" font-family="garamond" font-size="16.00" fill="#000000">Majority</text>
<text text-anchor="middle" x="1143" y="-676.2" font-family="garamond" font-size="16.00" fill="#000000">State Trifectas</text>
</g>
<!-- More\nState Trifectas&#45;&gt;Majority\nState Trifectas -->
<g id="edge23" class="edge">
<title>More\nState Trifectas&#45;&gt;Majority\nState Trifectas</title>
<path fill="none" stroke="#000000" d="M1028.4317,-809.6071C1040.8908,-797.379 1053.9966,-784.3258 1066,-772 1072.546,-765.2783 1079.3279,-758.1775 1086.0303,-751.0727"/>
<polygon fill="#000000" stroke="#000000" points="1088.9614,-753.0644 1093.2569,-743.3794 1083.8593,-748.2718 1088.9614,-753.0644"/>
</g>
<!-- Majority\nState Trifectas&#45;&gt;National\nPopular Vote\nInterstate Compact -->
<g id="edge20" class="edge">
<title>Majority\nState Trifectas&#45;&gt;National\nPopular Vote\nInterstate Compact</title>
<path fill="none" stroke="#000000" d="M1184.5372,-634.8677C1201.8589,-612.2936 1222.2603,-585.7059 1240.9522,-561.3462"/>
<polygon fill="#000000" stroke="#000000" points="1243.9078,-563.2437 1247.2187,-553.1795 1238.3543,-558.9824 1243.9078,-563.2437"/>
</g>
<!-- 2/3\nState Trifectas -->
<g id="node21" class="node">
<title>2/3\nState Trifectas</title>
<polygon fill="#ffffff" stroke="#000000" stroke-width="2" points="1197,-541 1089,-541 1089,-433 1197,-433 1197,-541"/>
<text text-anchor="middle" x="1143" y="-492.2" font-family="garamond" font-size="16.00" fill="#000000">2/3</text>
<text text-anchor="middle" x="1143" y="-474.2" font-family="garamond" font-size="16.00" fill="#000000">State Trifectas</text>
</g>
<!-- Majority\nState Trifectas&#45;&gt;2/3\nState Trifectas -->
<g id="edge21" class="edge">
<title>Majority\nState Trifectas&#45;&gt;2/3\nState Trifectas</title>
<path fill="none" stroke="#000000" d="M1143,-634.8677C1143,-609.1684 1143,-578.2673 1143,-551.3736"/>
<polygon fill="#000000" stroke="#000000" points="1146.5001,-551.2817 1143,-541.2817 1139.5001,-551.2818 1146.5001,-551.2817"/>
</g>
<!-- 2/3\nState Trifectas&#45;&gt;Constitutional\nConvention -->
<g id="edge28" class="edge">
<title>2/3\nState Trifectas&#45;&gt;Constitutional\nConvention</title>
<path fill="none" stroke="#000000" d="M1147.0197,-432.8677C1148.9281,-407.1684 1151.2227,-376.2673 1153.2198,-349.3736"/>
<polygon fill="#000000" stroke="#000000" points="1156.7189,-349.5135 1153.9692,-339.2817 1149.7382,-348.995 1156.7189,-349.5135"/>
</g>
<!-- House Majority -->
<g id="node22" class="node">
<title>House Majority</title>
<polygon fill="#ffffff" stroke="#000000" stroke-width="2" points="844,-916 736,-916 736,-808 844,-808 844,-916"/>
<text text-anchor="middle" x="790" y="-858.2" font-family="garamond" font-size="16.00" fill="#000000">House Majority</text>
</g>
<!-- House Majority&#45;&gt;Federal Trifecta -->
<g id="edge13" class="edge">
<title>House Majority&#45;&gt;Federal Trifecta</title>
<path fill="none" stroke="#000000" d="M790,-807.7364C790,-790.4262 790,-771.1061 790,-753.1627"/>
<polygon fill="#000000" stroke="#000000" points="793.5001,-753.071 790,-743.0711 786.5001,-753.0711 793.5001,-753.071"/>
</g>
<!-- Senate Majority -->
<g id="node23" class="node">
<title>Senate Majority</title>
<polygon fill="#ffffff" stroke="#000000" stroke-width="2" points="592,-916 484,-916 484,-808 592,-808 592,-916"/>
<text text-anchor="middle" x="538" y="-858.2" font-family="garamond" font-size="16.00" fill="#000000">Senate Majority</text>
</g>
<!-- Senate Majority&#45;&gt;Expand\nSCOTUS -->
<g id="edge25" class="edge">
<title>Senate Majority&#45;&gt;Expand\nSCOTUS</title>
<path fill="none" stroke="#000000" d="M483.8201,-839.3583C447.1842,-822.9628 398.4749,-799.0031 359,-772 350.8105,-766.3979 342.5855,-760.1201 334.6036,-753.5919"/>
<polygon fill="#000000" stroke="#000000" points="336.6303,-750.7242 326.7131,-746.996 332.1408,-756.095 336.6303,-750.7242"/>
</g>
<!-- Senate Majority&#45;&gt;Expand\nFederal Courts -->
<g id="edge24" class="edge">
<title>Senate Majority&#45;&gt;Expand\nFederal Courts</title>
<path fill="none" stroke="#000000" d="M568.4253,-807.7364C575.1064,-795.8205 582.3215,-782.9523 589.4513,-770.2363"/>
<polygon fill="#000000" stroke="#000000" points="592.5283,-771.9051 594.3661,-761.4708 586.4225,-768.4816 592.5283,-771.9051"/>
</g>
<!-- Senate Majority&#45;&gt;Abolish\nFilibuster -->
<g id="edge27" class="edge">
<title>Senate Majority&#45;&gt;Abolish\nFilibuster</title>
<path fill="none" stroke="#000000" d="M510.7114,-807.7364C505.0725,-796.5235 499.0095,-784.4672 492.9853,-772.4881"/>
<polygon fill="#000000" stroke="#000000" points="496.0135,-770.7193 488.3938,-763.3578 489.7598,-773.8643 496.0135,-770.7193"/>
</g>
<!-- Senate Majority&#45;&gt;Federal Trifecta -->
<g id="edge26" class="edge">
<title>Senate Majority&#45;&gt;Federal Trifecta</title>
<path fill="none" stroke="#000000" d="M592.3141,-813.1296C595.1798,-811.2927 598.082,-809.5694 601,-808 652.2926,-780.4125 678.929,-804.8814 727,-772 735.399,-766.2549 743.1487,-759.0273 750.1289,-751.246"/>
<polygon fill="#000000" stroke="#000000" points="753.0547,-753.2071 756.8481,-743.3146 747.7137,-748.6823 753.0547,-753.2071"/>
</g>
<!-- Presidency -->
<g id="node24" class="node">
<title>Presidency</title>
<polygon fill="#ffffff" stroke="#000000" stroke-width="2" points="718,-916 610,-916 610,-808 718,-808 718,-916"/>
<text text-anchor="middle" x="664" y="-858.2" font-family="garamond" font-size="16.00" fill="#000000">Presidency</text>
</g>
<!-- Presidency&#45;&gt;Expand\nSCOTUS -->
<g id="edge30" class="edge">
<title>Presidency&#45;&gt;Expand\nSCOTUS</title>
<path fill="none" stroke="#000000" d="M609.925,-812.648C606.9953,-810.94 604.0142,-809.3756 601,-808 502.0762,-762.8526 457.3427,-818.3995 359,-772 349.7118,-767.6177 340.6882,-761.9832 332.1536,-755.716"/>
<polygon fill="#000000" stroke="#000000" points="334.1861,-752.8636 324.1281,-749.5336 329.9142,-758.409 334.1861,-752.8636"/>
</g>
<!-- Presidency&#45;&gt;Expand\nFederal Courts -->
<g id="edge29" class="edge">
<title>Presidency&#45;&gt;Expand\nFederal Courts</title>
<path fill="none" stroke="#000000" d="M654.9038,-807.7364C653.4644,-799.1494 651.942,-790.0679 650.4061,-780.9051"/>
<polygon fill="#000000" stroke="#000000" points="653.8425,-780.234 648.7373,-770.9502 646.9388,-781.3913 653.8425,-780.234"/>
</g>
<!-- Presidency&#45;&gt;Federal Trifecta -->
<g id="edge31" class="edge">
<title>Presidency&#45;&gt;Federal Trifecta</title>
<path fill="none" stroke="#000000" d="M703.5215,-807.7364C716.5394,-789.8626 731.118,-769.8459 744.542,-751.4146"/>
<polygon fill="#000000" stroke="#000000" points="747.5606,-753.215 750.6188,-743.0711 741.9023,-749.0939 747.5606,-753.215"/>
</g>
<!-- Click Here to\nGet Out\nThe Vote! -->
<g id="node25" class="node">
<title>Click Here to\nGet Out\nThe Vote!</title>
<g id="a_node25"><a xlink:href="/gotv" xlink:title="Click Here to\nGet Out\nThe Vote!">
<ellipse fill="#ffffff" stroke="#0000ff" stroke-width="4" cx="727" cy="-1060" rx="108" ry="108"/>
<text text-anchor="middle" x="727" y="-1091.2" font-family="garamond" font-size="36.00" fill="#ff0000">Click Here to</text>
<text text-anchor="middle" x="727" y="-1051.2" font-family="garamond" font-size="36.00" fill="#ff0000">Get Out</text>
<text text-anchor="middle" x="727" y="-1011.2" font-family="garamond" font-size="36.00" fill="#ff0000">The Vote!</text>
</a>
</g>
</g>
<!-- Click Here to\nGet Out\nThe Vote!&#45;&gt;More\nState Trifectas -->
<g id="edge10" class="edge">
<title>Click Here to\nGet Out\nThe Vote!&#45;&gt;More\nState Trifectas</title>
<path fill="none" stroke="#000000" d="M811.3126,-992.4134C844.283,-965.9837 881.4105,-936.2215 911.8639,-911.8095"/>
<polygon fill="#000000" stroke="#000000" points="914.247,-914.3849 919.8604,-905.3993 909.8687,-908.9231 914.247,-914.3849"/>
</g>
<!-- Click Here to\nGet Out\nThe Vote!&#45;&gt;House Majority -->
<g id="edge9" class="edge">
<title>Click Here to\nGet Out\nThe Vote!&#45;&gt;House Majority</title>
<path fill="none" stroke="#000000" d="M759.7917,-956.9405C763.1552,-946.3693 766.4991,-935.86 769.6696,-925.8957"/>
<polygon fill="#000000" stroke="#000000" points="773.0797,-926.7215 772.7765,-916.131 766.4092,-924.599 773.0797,-926.7215"/>
</g>
<!-- Click Here to\nGet Out\nThe Vote!&#45;&gt;Senate Majority -->
<g id="edge11" class="edge">
<title>Click Here to\nGet Out\nThe Vote!&#45;&gt;Senate Majority</title>
<path fill="none" stroke="#000000" d="M652.3022,-981.7452C633.9746,-962.5449 614.6067,-942.2546 597.126,-923.9415"/>
<polygon fill="#000000" stroke="#000000" points="599.1949,-921.0399 589.7583,-916.223 594.1313,-925.8733 599.1949,-921.0399"/>
</g>
<!-- Click Here to\nGet Out\nThe Vote!&#45;&gt;Presidency -->
<g id="edge12" class="edge">
<title>Click Here to\nGet Out\nThe Vote!&#45;&gt;Presidency</title>
<path fill="none" stroke="#000000" d="M694.2083,-956.9405C690.8448,-946.3693 687.5009,-935.86 684.3304,-925.8957"/>
<polygon fill="#000000" stroke="#000000" points="687.5908,-924.599 681.2235,-916.131 680.9203,-926.7215 687.5908,-924.599"/>
</g>
</g>
</svg>
