<?xml version="1.0" encoding="UTF-8" standalone="no"?>
<!DOCTYPE svg PUBLIC "-//W3C//DTD SVG 1.1//EN"
 "http://www.w3.org/Graphics/SVG/1.1/DTD/svg11.dtd">
<!-- Generated by graphviz version 2.40.1 (20161225.0304)
 -->
<!-- Title: G Pages: 1 -->
<svg width="1544pt" height="503pt"
 viewBox="0.00 0.00 1543.78 503.00" xmlns="http://www.w3.org/2000/svg" xmlns:xlink="http://www.w3.org/1999/xlink">
<g id="graph0" class="graph" transform="scale(1 1) rotate(0) translate(4 499)">
<title>G</title>
<!-- Expand SCOTUS -->
<g id="node1" class="node">
<title>Expand SCOTUS</title>
<ellipse fill="none" stroke="#ffd700" cx="544.5081" cy="-261" rx="75.2868" ry="18"/>
<text text-anchor="middle" x="544.5081" y="-257.3" font-family="Times,serif" font-size="14.00" fill="#000000">Expand SCOTUS</text>
</g>
<!-- Undo Citizen&#39;s United -->
<g id="node15" class="node">
<title>Undo Citizen&#39;s United</title>
<ellipse fill="none" stroke="#000000" cx="850.8841" cy="-261" rx="91.784" ry="18"/>
<text text-anchor="middle" x="850.8841" y="-257.3" font-family="Times,serif" font-size="14.00" fill="#000000">Undo Citizen&#39;s United</text>
</g>
<!-- Expand SCOTUS&#45;&gt;Undo Citizen&#39;s United -->
<g id="edge5" class="edge">
<title>Expand SCOTUS&#45;&gt;Undo Citizen&#39;s United</title>
<path fill="none" stroke="#000000" d="M620.2415,-261C659.0391,-261 706.8318,-261 748.8316,-261"/>
<polygon fill="#000000" stroke="#000000" points="749.0942,-264.5001 759.0942,-261 749.0941,-257.5001 749.0942,-264.5001"/>
</g>
<!-- SCOTUS term limits -->
<g id="node2" class="node">
<title>SCOTUS term limits</title>
<ellipse fill="none" stroke="#ffd700" cx="1416.8403" cy="-126" rx="87.9851" ry="18"/>
<text text-anchor="middle" x="1416.8403" y="-122.3" font-family="Times,serif" font-size="14.00" fill="#000000">SCOTUS term limits</text>
</g>
<!-- Expand Federal Courts -->
<g id="node3" class="node">
<title>Expand Federal Courts</title>
<ellipse fill="none" stroke="#ffd700" cx="544.5081" cy="-207" rx="94.7833" ry="18"/>
<text text-anchor="middle" x="544.5081" y="-203.3" font-family="Times,serif" font-size="14.00" fill="#000000">Expand Federal Courts</text>
</g>
<!-- Campaign Finance Reform -->
<g id="node4" class="node">
<title>Campaign Finance Reform</title>
<ellipse fill="none" stroke="#ffd700" cx="1138.4118" cy="-261" rx="109.381" ry="18"/>
<text text-anchor="middle" x="1138.4118" y="-257.3" font-family="Times,serif" font-size="14.00" fill="#000000">Campaign Finance Reform</text>
</g>
<!-- Federal Gerrymandering Rules -->
<g id="node5" class="node">
<title>Federal Gerrymandering Rules</title>
<ellipse fill="none" stroke="#ffd700" cx="1138.4118" cy="-369" rx="123.4781" ry="18"/>
<text text-anchor="middle" x="1138.4118" y="-365.3" font-family="Times,serif" font-size="14.00" fill="#000000">Federal Gerrymandering Rules</text>
</g>
<!-- Fix Gerrymandering In Some States -->
<g id="node6" class="node">
<title>Fix Gerrymandering In Some States</title>
<ellipse fill="none" stroke="#ffd700" cx="544.5081" cy="-153" rx="142.1749" ry="18"/>
<text text-anchor="middle" x="544.5081" y="-149.3" font-family="Times,serif" font-size="14.00" fill="#000000">Fix Gerrymandering In Some States</text>
</g>
<!-- Interstate Electoral College Pact -->
<g id="node7" class="node">
<title>Interstate Electoral College Pact</title>
<ellipse fill="none" stroke="#ffd700" cx="850.8841" cy="-126" rx="128.0773" ry="18"/>
<text text-anchor="middle" x="850.8841" y="-122.3" font-family="Times,serif" font-size="14.00" fill="#000000">Interstate Electoral College Pact</text>
</g>
<!-- Removal of Electoral College -->
<g id="node8" class="node">
<title>Removal of Electoral College</title>
<ellipse fill="none" stroke="#ffd700" cx="1416.8403" cy="-72" rx="118.8789" ry="18"/>
<text text-anchor="middle" x="1416.8403" y="-68.3" font-family="Times,serif" font-size="14.00" fill="#000000">Removal of Electoral College</text>
</g>
<!-- Statehood for Territories -->
<g id="node9" class="node">
<title>Statehood for Territories</title>
<ellipse fill="none" stroke="#ffd700" cx="1138.4118" cy="-315" rx="100.9827" ry="18"/>
<text text-anchor="middle" x="1138.4118" y="-311.3" font-family="Times,serif" font-size="14.00" fill="#000000">Statehood for Territories</text>
</g>
<!-- Statehood for DC -->
<g id="node10" class="node">
<title>Statehood for DC</title>
<ellipse fill="none" stroke="#ffd700" cx="1138.4118" cy="-477" rx="74.9875" ry="18"/>
<text text-anchor="middle" x="1138.4118" y="-473.3" font-family="Times,serif" font-size="14.00" fill="#000000">Statehood for DC</text>
</g>
<!-- Abolish/Reform Senate -->
<g id="node11" class="node">
<title>Abolish/Reform Senate</title>
<ellipse fill="none" stroke="#ffd700" cx="1416.8403" cy="-18" rx="96.3833" ry="18"/>
<text text-anchor="middle" x="1416.8403" y="-14.3" font-family="Times,serif" font-size="14.00" fill="#000000">Abolish/Reform Senate</text>
</g>
<!-- Abolish Filibuster -->
<g id="node12" class="node">
<title>Abolish Filibuster</title>
<ellipse fill="none" stroke="#ffd700" cx="544.5081" cy="-369" rx="76.8869" ry="18"/>
<text text-anchor="middle" x="544.5081" y="-365.3" font-family="Times,serif" font-size="14.00" fill="#000000">Abolish Filibuster</text>
</g>
<!-- Ability to Pass Legislation -->
<g id="node14" class="node">
<title>Ability to Pass Legislation</title>
<ellipse fill="none" stroke="#000000" cx="850.8841" cy="-369" rx="107.4815" ry="18"/>
<text text-anchor="middle" x="850.8841" y="-365.3" font-family="Times,serif" font-size="14.00" fill="#000000">Ability to Pass Legislation</text>
</g>
<!-- Abolish Filibuster&#45;&gt;Ability to Pass Legislation -->
<g id="edge7" class="edge">
<title>Abolish Filibuster&#45;&gt;Ability to Pass Legislation</title>
<path fill="none" stroke="#000000" d="M621.4242,-369C655.2058,-369 695.6313,-369 733.0739,-369"/>
<polygon fill="#000000" stroke="#000000" points="733.5475,-372.5001 743.5475,-369 733.5475,-365.5001 733.5475,-372.5001"/>
</g>
<!-- Expand House -->
<g id="node13" class="node">
<title>Expand House</title>
<ellipse fill="none" stroke="#ffd700" cx="1138.4118" cy="-423" rx="64.189" ry="18"/>
<text text-anchor="middle" x="1138.4118" y="-419.3" font-family="Times,serif" font-size="14.00" fill="#000000">Expand House</text>
</g>
<!-- Ability to Pass Legislation&#45;&gt;Campaign Finance Reform -->
<g id="edge13" class="edge">
<title>Ability to Pass Legislation&#45;&gt;Campaign Finance Reform</title>
<path fill="none" stroke="#000000" d="M880.461,-351.6414C912.5937,-333.4475 965.9127,-305.1692 1014.9227,-288 1027.301,-283.6636 1040.6302,-279.8804 1053.7917,-276.6284"/>
<polygon fill="#000000" stroke="#000000" points="1054.8875,-279.9654 1063.8051,-274.2448 1053.2664,-273.1557 1054.8875,-279.9654"/>
</g>
<!-- Ability to Pass Legislation&#45;&gt;Federal Gerrymandering Rules -->
<g id="edge16" class="edge">
<title>Ability to Pass Legislation&#45;&gt;Federal Gerrymandering Rules</title>
<path fill="none" stroke="#000000" d="M958.3577,-369C973.405,-369 989.0199,-369 1004.4823,-369"/>
<polygon fill="#000000" stroke="#000000" points="1004.6139,-372.5001 1014.6139,-369 1004.6138,-365.5001 1004.6139,-372.5001"/>
</g>
<!-- Ability to Pass Legislation&#45;&gt;Statehood for Territories -->
<g id="edge17" class="edge">
<title>Ability to Pass Legislation&#45;&gt;Statehood for Territories</title>
<path fill="none" stroke="#000000" d="M922.6978,-355.5128C963.9671,-347.7621 1015.8944,-338.0097 1058.4591,-330.0157"/>
<polygon fill="#000000" stroke="#000000" points="1059.3233,-333.4147 1068.5054,-328.129 1058.0311,-326.535 1059.3233,-333.4147"/>
</g>
<!-- Ability to Pass Legislation&#45;&gt;Statehood for DC -->
<g id="edge14" class="edge">
<title>Ability to Pass Legislation&#45;&gt;Statehood for DC</title>
<path fill="none" stroke="#000000" d="M880.461,-386.3586C912.5937,-404.5525 965.9127,-432.8308 1014.9227,-450 1031.4571,-455.7923 1049.688,-460.5977 1066.9495,-464.4684"/>
<polygon fill="#000000" stroke="#000000" points="1066.4665,-467.9448 1076.9807,-466.6398 1067.9475,-461.1033 1066.4665,-467.9448"/>
</g>
<!-- Ability to Pass Legislation&#45;&gt;Expand House -->
<g id="edge15" class="edge">
<title>Ability to Pass Legislation&#45;&gt;Expand House</title>
<path fill="none" stroke="#000000" d="M922.6978,-382.4872C969.399,-391.2581 1029.7485,-402.5922 1074.734,-411.0408"/>
<polygon fill="#000000" stroke="#000000" points="1074.1904,-414.4998 1084.6647,-412.9059 1075.4826,-407.6201 1074.1904,-414.4998"/>
</g>
<!-- Undo Citizen&#39;s United&#45;&gt;Campaign Finance Reform -->
<g id="edge1" class="edge">
<title>Undo Citizen&#39;s United&#45;&gt;Campaign Finance Reform</title>
<path fill="none" stroke="#000000" d="M942.6502,-261C966.9527,-261 993.5464,-261 1019.0807,-261"/>
<polygon fill="#000000" stroke="#000000" points="1019.1854,-264.5001 1029.1853,-261 1019.1853,-257.5001 1019.1854,-264.5001"/>
</g>
<!-- Federal Trifecta -->
<g id="node16" class="node">
<title>Federal Trifecta</title>
<ellipse fill="none" stroke="#000000" cx="544.5081" cy="-315" rx="68.7879" ry="18"/>
<text text-anchor="middle" x="544.5081" y="-311.3" font-family="Times,serif" font-size="14.00" fill="#000000">Federal Trifecta</text>
</g>
<!-- Federal Trifecta&#45;&gt;Ability to Pass Legislation -->
<g id="edge6" class="edge">
<title>Federal Trifecta&#45;&gt;Ability to Pass Legislation</title>
<path fill="none" stroke="#000000" d="M601.7757,-325.0936C648.2292,-333.2813 714.3743,-344.9396 766.8319,-354.1855"/>
<polygon fill="#000000" stroke="#000000" points="766.3392,-357.6525 776.7949,-355.9415 767.5543,-350.7588 766.3392,-357.6525"/>
</g>
<!-- Constitutional Convention -->
<g id="node17" class="node">
<title>Constitutional Convention</title>
<ellipse fill="none" stroke="#000000" cx="1138.4118" cy="-72" rx="107.4815" ry="18"/>
<text text-anchor="middle" x="1138.4118" y="-68.3" font-family="Times,serif" font-size="14.00" fill="#000000">Constitutional Convention</text>
</g>
<!-- Constitutional Convention&#45;&gt;SCOTUS term limits -->
<g id="edge3" class="edge">
<title>Constitutional Convention&#45;&gt;SCOTUS term limits</title>
<path fill="none" stroke="#000000" d="M1208.671,-85.6265C1249.5984,-93.5642 1301.1633,-103.565 1342.7324,-111.6271"/>
<polygon fill="#000000" stroke="#000000" points="1342.3158,-115.1115 1352.7993,-113.5795 1343.6487,-108.2395 1342.3158,-115.1115"/>
</g>
<!-- Constitutional Convention&#45;&gt;Removal of Electoral College -->
<g id="edge2" class="edge">
<title>Constitutional Convention&#45;&gt;Removal of Electoral College</title>
<path fill="none" stroke="#000000" d="M1245.6612,-72C1259.3444,-72 1273.4631,-72 1287.4489,-72"/>
<polygon fill="#000000" stroke="#000000" points="1287.6012,-75.5001 1297.6012,-72 1287.6011,-68.5001 1287.6012,-75.5001"/>
</g>
<!-- Constitutional Convention&#45;&gt;Abolish/Reform Senate -->
<g id="edge4" class="edge">
<title>Constitutional Convention&#45;&gt;Abolish/Reform Senate</title>
<path fill="none" stroke="#000000" d="M1208.671,-58.3735C1248.7054,-50.609 1298.9183,-40.8705 1339.9974,-32.9033"/>
<polygon fill="#000000" stroke="#000000" points="1340.8109,-36.3109 1349.9615,-30.9708 1339.478,-29.4389 1340.8109,-36.3109"/>
</g>
<!-- More State Trifectas -->
<g id="node18" class="node">
<title>More State Trifectas</title>
<ellipse fill="none" stroke="#000000" cx="280.3783" cy="-153" rx="85.5853" ry="18"/>
<text text-anchor="middle" x="280.3783" y="-149.3" font-family="Times,serif" font-size="14.00" fill="#000000">More State Trifectas</text>
</g>
<!-- More State Trifectas&#45;&gt;Fix Gerrymandering In Some States -->
<g id="edge20" class="edge">
<title>More State Trifectas&#45;&gt;Fix Gerrymandering In Some States</title>
<path fill="none" stroke="#000000" d="M366.4988,-153C374.7222,-153 383.2172,-153 391.8321,-153"/>
<polygon fill="#000000" stroke="#000000" points="391.9913,-156.5001 401.9913,-153 391.9912,-149.5001 391.9913,-156.5001"/>
</g>
<!-- Majority of States With Trifectas -->
<g id="node19" class="node">
<title>Majority of States With Trifectas</title>
<ellipse fill="none" stroke="#000000" cx="544.5081" cy="-99" rx="131.077" ry="18"/>
<text text-anchor="middle" x="544.5081" y="-95.3" font-family="Times,serif" font-size="14.00" fill="#000000">Majority of States With Trifectas</text>
</g>
<!-- More State Trifectas&#45;&gt;Majority of States With Trifectas -->
<g id="edge21" class="edge">
<title>More State Trifectas&#45;&gt;Majority of States With Trifectas</title>
<path fill="none" stroke="#000000" d="M338.5337,-139.7263C358.6603,-135.2339 381.381,-130.2752 402.1707,-126 419.3672,-122.4637 437.7679,-118.8486 455.4377,-115.4605"/>
<polygon fill="#000000" stroke="#000000" points="456.5756,-118.8066 465.7423,-113.4942 455.2635,-111.9307 456.5756,-118.8066"/>
</g>
<!-- Majority of States With Trifectas&#45;&gt;Interstate Electoral College Pact -->
<g id="edge18" class="edge">
<title>Majority of States With Trifectas&#45;&gt;Interstate Electoral College Pact</title>
<path fill="none" stroke="#000000" d="M655.1168,-108.7476C680.1596,-110.9546 706.8515,-113.3068 732.212,-115.5418"/>
<polygon fill="#000000" stroke="#000000" points="731.9653,-119.0335 742.234,-116.425 732.5799,-112.0605 731.9653,-119.0335"/>
</g>
<!-- 2/3 of States With Trifectas -->
<g id="node20" class="node">
<title>2/3 of States With Trifectas</title>
<ellipse fill="none" stroke="#000000" cx="850.8841" cy="-72" rx="111.2805" ry="18"/>
<text text-anchor="middle" x="850.8841" y="-68.3" font-family="Times,serif" font-size="14.00" fill="#000000">2/3 of States With Trifectas</text>
</g>
<!-- Majority of States With Trifectas&#45;&gt;2/3 of States With Trifectas -->
<g id="edge19" class="edge">
<title>Majority of States With Trifectas&#45;&gt;2/3 of States With Trifectas</title>
<path fill="none" stroke="#000000" d="M655.1168,-89.2524C683.7885,-86.7256 714.6218,-84.0084 743.1439,-81.4948"/>
<polygon fill="#000000" stroke="#000000" points="743.4747,-84.9793 753.1288,-80.6149 742.8601,-78.0064 743.4747,-84.9793"/>
</g>
<!-- 2/3 of States With Trifectas&#45;&gt;Constitutional Convention -->
<g id="edge26" class="edge">
<title>2/3 of States With Trifectas&#45;&gt;Constitutional Convention</title>
<path fill="none" stroke="#000000" d="M962.0498,-72C981.2934,-72 1001.3595,-72 1020.7684,-72"/>
<polygon fill="#000000" stroke="#000000" points="1020.8503,-75.5001 1030.8503,-72 1020.8503,-68.5001 1020.8503,-75.5001"/>
</g>
<!-- House Majority -->
<g id="node21" class="node">
<title>House Majority</title>
<ellipse fill="none" stroke="#000000" cx="280.3783" cy="-315" rx="68.4888" ry="18"/>
<text text-anchor="middle" x="280.3783" y="-311.3" font-family="Times,serif" font-size="14.00" fill="#000000">House Majority</text>
</g>
<!-- House Majority&#45;&gt;Federal Trifecta -->
<g id="edge12" class="edge">
<title>House Majority&#45;&gt;Federal Trifecta</title>
<path fill="none" stroke="#000000" d="M348.7418,-315C384.3696,-315 428.1309,-315 465.2365,-315"/>
<polygon fill="#000000" stroke="#000000" points="465.5134,-318.5001 475.5133,-315 465.5133,-311.5001 465.5134,-318.5001"/>
</g>
<!-- Senate Majority -->
<g id="node22" class="node">
<title>Senate Majority</title>
<ellipse fill="none" stroke="#000000" cx="280.3783" cy="-261" rx="68.7879" ry="18"/>
<text text-anchor="middle" x="280.3783" y="-257.3" font-family="Times,serif" font-size="14.00" fill="#000000">Senate Majority</text>
</g>
<!-- Senate Majority&#45;&gt;Expand SCOTUS -->
<g id="edge23" class="edge">
<title>Senate Majority&#45;&gt;Expand SCOTUS</title>
<path fill="none" stroke="#000000" d="M349.4303,-261C382.8185,-261 423.2252,-261 458.5844,-261"/>
<polygon fill="#000000" stroke="#000000" points="458.8965,-264.5001 468.8964,-261 458.8964,-257.5001 458.8965,-264.5001"/>
</g>
<!-- Senate Majority&#45;&gt;Expand Federal Courts -->
<g id="edge22" class="edge">
<title>Senate Majority&#45;&gt;Expand Federal Courts</title>
<path fill="none" stroke="#000000" d="M332.4583,-249.0858C354.0033,-244.253 379.2596,-238.7114 402.1707,-234 422.8134,-229.7551 445.1914,-225.3965 465.9573,-221.4534"/>
<polygon fill="#000000" stroke="#000000" points="466.8316,-224.8502 476.0074,-219.5533 465.5312,-217.972 466.8316,-224.8502"/>
</g>
<!-- Senate Majority&#45;&gt;Abolish Filibuster -->
<g id="edge25" class="edge">
<title>Senate Majority&#45;&gt;Abolish Filibuster</title>
<path fill="none" stroke="#000000" d="M335.2451,-272.1762C346.1606,-276.022 357.0541,-281.1576 366.1707,-288 389.2402,-305.3146 378.1248,-326.069 402.1707,-342 418.942,-353.1114 439.1285,-359.9152 458.9586,-364.0184"/>
<polygon fill="#000000" stroke="#000000" points="458.4901,-367.4911 468.9609,-365.8746 459.7674,-360.6086 458.4901,-367.4911"/>
</g>
<!-- Senate Majority&#45;&gt;Federal Trifecta -->
<g id="edge24" class="edge">
<title>Senate Majority&#45;&gt;Federal Trifecta</title>
<path fill="none" stroke="#000000" d="M332.4583,-272.9142C354.0033,-277.747 379.2596,-283.2886 402.1707,-288 426.8534,-293.0757 454.0171,-298.3139 477.9394,-302.8101"/>
<polygon fill="#000000" stroke="#000000" points="477.5034,-306.2892 487.9767,-304.6889 478.7914,-299.4087 477.5034,-306.2892"/>
</g>
<!-- Presidency -->
<g id="node23" class="node">
<title>Presidency</title>
<ellipse fill="none" stroke="#000000" cx="280.3783" cy="-207" rx="50.8918" ry="18"/>
<text text-anchor="middle" x="280.3783" y="-203.3" font-family="Times,serif" font-size="14.00" fill="#000000">Presidency</text>
</g>
<!-- Presidency&#45;&gt;Expand SCOTUS -->
<g id="edge28" class="edge">
<title>Presidency&#45;&gt;Expand SCOTUS</title>
<path fill="none" stroke="#000000" d="M323.1468,-216.818C346.4685,-222.0868 375.8654,-228.5906 402.1707,-234 425.6702,-238.8324 451.4184,-243.8121 474.4773,-248.1584"/>
<polygon fill="#000000" stroke="#000000" points="474.0475,-251.6388 484.5216,-250.0439 475.339,-244.759 474.0475,-251.6388"/>
</g>
<!-- Presidency&#45;&gt;Expand Federal Courts -->
<g id="edge27" class="edge">
<title>Presidency&#45;&gt;Expand Federal Courts</title>
<path fill="none" stroke="#000000" d="M331.3052,-207C361.8619,-207 401.8804,-207 438.9837,-207"/>
<polygon fill="#000000" stroke="#000000" points="439.3611,-210.5001 449.3611,-207 439.3611,-203.5001 439.3611,-210.5001"/>
</g>
<!-- Presidency&#45;&gt;Federal Trifecta -->
<g id="edge29" class="edge">
<title>Presidency&#45;&gt;Federal Trifecta</title>
<path fill="none" stroke="#000000" d="M325.861,-215.1676C339.7462,-219.2086 354.4315,-225.1892 366.1707,-234 389.2402,-251.3146 378.1248,-272.069 402.1707,-288 420.8992,-300.408 443.8863,-307.4444 465.8803,-311.3471"/>
<polygon fill="#000000" stroke="#000000" points="465.4736,-314.8262 475.897,-312.9278 466.5648,-307.9117 465.4736,-314.8262"/>
</g>
<!-- Get Out The Vote! -->
<g id="node24" class="node">
<title>Get Out The Vote!</title>
<ellipse fill="none" stroke="#000000" cx="79.293" cy="-234" rx="79.0865" ry="18"/>
<text text-anchor="middle" x="79.293" y="-230.3" font-family="Times,serif" font-size="14.00" fill="#000000">Get Out The Vote!</text>
</g>
<!-- Get Out The Vote!&#45;&gt;More State Trifectas -->
<g id="edge9" class="edge">
<title>Get Out The Vote!&#45;&gt;More State Trifectas</title>
<path fill="none" stroke="#000000" d="M111.5878,-217.46C134.4284,-206.1135 165.9583,-191.1518 194.5859,-180 202.8315,-176.7879 211.6308,-173.6748 220.3345,-170.7743"/>
<polygon fill="#000000" stroke="#000000" points="221.663,-174.0226 230.0861,-167.5959 219.4937,-167.3672 221.663,-174.0226"/>
</g>
<!-- Get Out The Vote!&#45;&gt;House Majority -->
<g id="edge8" class="edge">
<title>Get Out The Vote!&#45;&gt;House Majority</title>
<path fill="none" stroke="#000000" d="M111.5878,-250.54C134.4284,-261.8865 165.9583,-276.8482 194.5859,-288 204.1785,-291.7368 214.5205,-295.3396 224.5895,-298.6297"/>
<polygon fill="#000000" stroke="#000000" points="223.5354,-301.9671 234.1264,-301.6824 225.6694,-295.3003 223.5354,-301.9671"/>
</g>
<!-- Get Out The Vote!&#45;&gt;Senate Majority -->
<g id="edge10" class="edge">
<title>Get Out The Vote!&#45;&gt;Senate Majority</title>
<path fill="none" stroke="#000000" d="M147.6519,-243.1786C167.4244,-245.8335 189.0532,-248.7377 209.0045,-251.4165"/>
<polygon fill="#000000" stroke="#000000" points="208.5793,-254.8908 218.9561,-252.7528 209.5109,-247.953 208.5793,-254.8908"/>
</g>
<!-- Get Out The Vote!&#45;&gt;Presidency -->
<g id="edge11" class="edge">
<title>Get Out The Vote!&#45;&gt;Presidency</title>
<path fill="none" stroke="#000000" d="M147.6519,-224.8214C172.0503,-221.5454 199.2753,-217.8898 222.687,-214.7463"/>
<polygon fill="#000000" stroke="#000000" points="223.3632,-218.187 232.8085,-213.3873 222.4316,-211.2493 223.3632,-218.187"/>
</g>
</g>
</svg>
