<?xml version="1.0" encoding="UTF-8" standalone="no"?>
<!DOCTYPE svg PUBLIC "-//W3C//DTD SVG 1.1//EN"
 "http://www.w3.org/Graphics/SVG/1.1/DTD/svg11.dtd">
<!-- Generated by graphviz version 2.40.1 (20161225.0304)
 -->
<!-- Title: G Pages: 1 -->
<svg width="1665pt" height="1176pt"
 viewBox="0.00 0.00 1665.00 1176.00" xmlns="http://www.w3.org/2000/svg" xmlns:xlink="http://www.w3.org/1999/xlink">
<g id="graph0" class="graph" transform="scale(1 1) rotate(0) translate(4 1172)">
<title>G</title>
<!-- Expand\nSCOTUS -->
<g id="node1" class="node">
<title>Expand\nSCOTUS</title>
<ellipse fill="#ffffff" stroke="#ffd700" stroke-width="3" cx="790" cy="-689" rx="83" ry="83"/>
<text text-anchor="middle" x="790" y="-695" font-family="garamond" font-size="20.00" fill="#000000">Expand</text>
<text text-anchor="middle" x="790" y="-673" font-family="garamond" font-size="20.00" fill="#000000">SCOTUS</text>
</g>
<!-- Undo\nCitizen&#39;s United -->
<g id="node15" class="node">
<title>Undo\nCitizen&#39;s United</title>
<polygon fill="#ffffff" stroke="#000000" stroke-width="3" points="858,-541 750,-541 750,-433 858,-433 858,-541"/>
<text text-anchor="middle" x="804" y="-492.2" font-family="garamond" font-size="16.00" fill="#000000">Undo</text>
<text text-anchor="middle" x="804" y="-474.2" font-family="garamond" font-size="16.00" fill="#000000">Citizen&#39;s United</text>
</g>
<!-- Expand\nSCOTUS&#45;&#45;Undo\nCitizen&#39;s United -->
<g id="edge5" class="edge">
<title>Expand\nSCOTUS&#45;&#45;Undo\nCitizen&#39;s United</title>
<path fill="none" stroke="#000000" d="M795.7549,-605.9644C797.2708,-584.0922 798.8672,-561.0585 800.2473,-541.1463"/>
</g>
<!-- SCOTUS\nterm limits -->
<g id="node2" class="node">
<title>SCOTUS\nterm limits</title>
<ellipse fill="#ffffff" stroke="#ffd700" stroke-width="3" cx="1206" cy="-83" rx="83" ry="83"/>
<text text-anchor="middle" x="1206" y="-89" font-family="garamond" font-size="20.00" fill="#000000">SCOTUS</text>
<text text-anchor="middle" x="1206" y="-67" font-family="garamond" font-size="20.00" fill="#000000">term limits</text>
</g>
<!-- Expand\nFederal Courts -->
<g id="node3" class="node">
<title>Expand\nFederal Courts</title>
<ellipse fill="#ffffff" stroke="#ffd700" stroke-width="3" cx="974" cy="-689" rx="83" ry="83"/>
<text text-anchor="middle" x="974" y="-695" font-family="garamond" font-size="20.00" fill="#000000">Expand</text>
<text text-anchor="middle" x="974" y="-673" font-family="garamond" font-size="20.00" fill="#000000">Federal Courts</text>
</g>
<!-- Campaign Finance\nReform -->
<g id="node4" class="node">
<title>Campaign Finance\nReform</title>
<ellipse fill="#ffffff" stroke="#ffd700" stroke-width="3" cx="819" cy="-285" rx="83" ry="83"/>
<text text-anchor="middle" x="819" y="-291" font-family="garamond" font-size="20.00" fill="#000000">Campaign Finance</text>
<text text-anchor="middle" x="819" y="-269" font-family="garamond" font-size="20.00" fill="#000000">Reform</text>
</g>
<!-- Federal\nGerrymandering\nRules -->
<g id="node5" class="node">
<title>Federal\nGerrymandering\nRules</title>
<g id="a_node5"><a xlink:href="https://democraticredistricting.com/" xlink:title="Federal\nGerrymandering\nRules" target="new">
<ellipse fill="#ffffff" stroke="#ffd700" stroke-width="3" cx="635" cy="-285" rx="83" ry="83"/>
<text text-anchor="middle" x="635" y="-302" font-family="garamond" font-size="20.00" fill="#000000">Federal</text>
<text text-anchor="middle" x="635" y="-280" font-family="garamond" font-size="20.00" fill="#000000">Gerrymandering</text>
<text text-anchor="middle" x="635" y="-258" font-family="garamond" font-size="20.00" fill="#000000">Rules</text>
</a>
</g>
</g>
<!-- Fix Gerrymandering\nIn Some States -->
<g id="node6" class="node">
<title>Fix Gerrymandering\nIn Some States</title>
<g id="a_node6"><a xlink:href="https://democraticredistricting.com/" xlink:title="Fix Gerrymandering\nIn Some States" target="new">
<ellipse fill="#ffffff" stroke="#ffd700" stroke-width="3" cx="1158" cy="-689" rx="83" ry="83"/>
<text text-anchor="middle" x="1158" y="-695" font-family="garamond" font-size="20.00" fill="#000000">Fix Gerrymandering</text>
<text text-anchor="middle" x="1158" y="-673" font-family="garamond" font-size="20.00" fill="#000000">In Some States</text>
</a>
</g>
</g>
<!-- Interstate Electoral\nCollege Pact -->
<g id="node7" class="node">
<title>Interstate Electoral\nCollege Pact</title>
<g id="a_node7"><a xlink:href="https://www.nationalpopularvote.com/written-explanation" xlink:title="Interstate Electoral\nCollege Pact" target="new">
<ellipse fill="#ffffff" stroke="#ffd700" stroke-width="3" cx="1235" cy="-487" rx="83" ry="83"/>
<text text-anchor="middle" x="1235" y="-493" font-family="garamond" font-size="20.00" fill="#000000">Interstate Electoral</text>
<text text-anchor="middle" x="1235" y="-471" font-family="garamond" font-size="20.00" fill="#000000">College Pact</text>
</a>
</g>
</g>
<!-- Removal of\nElectoral College -->
<g id="node8" class="node">
<title>Removal of\nElectoral College</title>
<ellipse fill="#ffffff" stroke="#ffd700" stroke-width="3" cx="1390" cy="-83" rx="83" ry="83"/>
<text text-anchor="middle" x="1390" y="-89" font-family="garamond" font-size="20.00" fill="#000000">Removal of</text>
<text text-anchor="middle" x="1390" y="-67" font-family="garamond" font-size="20.00" fill="#000000">Electoral College</text>
</g>
<!-- Statehood for\nTerritories -->
<g id="node9" class="node">
<title>Statehood for\nTerritories</title>
<ellipse fill="#ffffff" stroke="#ffd700" stroke-width="3" cx="83" cy="-285" rx="83" ry="83"/>
<text text-anchor="middle" x="83" y="-291" font-family="garamond" font-size="20.00" fill="#000000">Statehood for</text>
<text text-anchor="middle" x="83" y="-269" font-family="garamond" font-size="20.00" fill="#000000">Territories</text>
</g>
<!-- Statehood for\nDC -->
<g id="node10" class="node">
<title>Statehood for\nDC</title>
<ellipse fill="#ffffff" stroke="#ffd700" stroke-width="3" cx="267" cy="-285" rx="83" ry="83"/>
<text text-anchor="middle" x="267" y="-291" font-family="garamond" font-size="20.00" fill="#000000">Statehood for</text>
<text text-anchor="middle" x="267" y="-269" font-family="garamond" font-size="20.00" fill="#000000">DC</text>
</g>
<!-- Reform\nSenate -->
<g id="node11" class="node">
<title>Reform\nSenate</title>
<ellipse fill="#ffffff" stroke="#ffd700" stroke-width="3" cx="1574" cy="-83" rx="83" ry="83"/>
<text text-anchor="middle" x="1574" y="-89" font-family="garamond" font-size="20.00" fill="#000000">Reform</text>
<text text-anchor="middle" x="1574" y="-67" font-family="garamond" font-size="20.00" fill="#000000">Senate</text>
</g>
<!-- Abolish\nFilibuster -->
<g id="node12" class="node">
<title>Abolish\nFilibuster</title>
<ellipse fill="#ffffff" stroke="#ffd700" stroke-width="3" cx="480" cy="-689" rx="83" ry="83"/>
<text text-anchor="middle" x="480" y="-695" font-family="garamond" font-size="20.00" fill="#000000">Abolish</text>
<text text-anchor="middle" x="480" y="-673" font-family="garamond" font-size="20.00" fill="#000000">Filibuster</text>
</g>
<!-- Ability to\nPass Legislation -->
<g id="node14" class="node">
<title>Ability to\nPass Legislation</title>
<polygon fill="#ffffff" stroke="#000000" stroke-width="3" points="534,-541 426,-541 426,-433 534,-433 534,-541"/>
<text text-anchor="middle" x="480" y="-492.2" font-family="garamond" font-size="16.00" fill="#000000">Ability to</text>
<text text-anchor="middle" x="480" y="-474.2" font-family="garamond" font-size="16.00" fill="#000000">Pass Legislation</text>
</g>
<!-- Abolish\nFilibuster&#45;&#45;Ability to\nPass Legislation -->
<g id="edge7" class="edge">
<title>Abolish\nFilibuster&#45;&#45;Ability to\nPass Legislation</title>
<path fill="none" stroke="#000000" d="M480,-605.9644C480,-584.0922 480,-561.0585 480,-541.1463"/>
</g>
<!-- Expand\nHouse -->
<g id="node13" class="node">
<title>Expand\nHouse</title>
<g id="a_node13"><a xlink:href="https://www.reddit.com/r/UncapTheHouse/comments/ekv0w7/welcome_to_runcapthehouse_click_here_for_more/" xlink:title="Expand\nHouse" target="new">
<ellipse fill="#ffffff" stroke="#ffd700" stroke-width="3" cx="451" cy="-285" rx="83" ry="83"/>
<text text-anchor="middle" x="451" y="-291" font-family="garamond" font-size="20.00" fill="#000000">Expand</text>
<text text-anchor="middle" x="451" y="-269" font-family="garamond" font-size="20.00" fill="#000000">House</text>
</a>
</g>
</g>
<!-- Ability to\nPass Legislation&#45;&#45;Campaign Finance\nReform -->
<g id="edge13" class="edge">
<title>Ability to\nPass Legislation&#45;&#45;Campaign Finance\nReform</title>
<path fill="none" stroke="#000000" d="M534.4153,-466.0701C586.1198,-444.9866 664.9652,-409.6698 727,-368 737.9821,-360.6231 748.9972,-352.0005 759.3956,-343.1564"/>
</g>
<!-- Ability to\nPass Legislation&#45;&#45;Federal\nGerrymandering\nRules -->
<g id="edge16" class="edge">
<title>Ability to\nPass Legislation&#45;&#45;Federal\nGerrymandering\nRules</title>
<path fill="none" stroke="#000000" d="M521.5372,-432.8677C540.817,-407.7417 563.9122,-377.6435 584.2187,-351.1795"/>
</g>
<!-- Ability to\nPass Legislation&#45;&#45;Statehood for\nTerritories -->
<g id="edge17" class="edge">
<title>Ability to\nPass Legislation&#45;&#45;Statehood for\nTerritories</title>
<path fill="none" stroke="#000000" d="M425.7444,-472.3451C362.532,-453.8369 256.3777,-418.2303 175,-368 163.6507,-360.9946 152.4025,-352.5142 141.872,-343.684"/>
</g>
<!-- Ability to\nPass Legislation&#45;&#45;Statehood for\nDC -->
<g id="edge14" class="edge">
<title>Ability to\nPass Legislation&#45;&#45;Statehood for\nDC</title>
<path fill="none" stroke="#000000" d="M425.9758,-435.7657C395.903,-407.2461 358.3881,-371.6685 327.3542,-342.2373"/>
</g>
<!-- Ability to\nPass Legislation&#45;&#45;Expand\nHouse -->
<g id="edge15" class="edge">
<title>Ability to\nPass Legislation&#45;&#45;Expand\nHouse</title>
<path fill="none" stroke="#000000" d="M472.2285,-432.8677C469.3428,-412.7669 466.0002,-389.4839 462.8333,-367.4252"/>
</g>
<!-- Undo\nCitizen&#39;s United&#45;&#45;Campaign Finance\nReform -->
<g id="edge1" class="edge">
<title>Undo\nCitizen&#39;s United&#45;&#45;Campaign Finance\nReform</title>
<path fill="none" stroke="#000000" d="M808.0197,-432.8677C809.5037,-412.8838 811.2212,-389.7545 812.8507,-367.81"/>
</g>
<!-- Federal Trifecta -->
<g id="node16" class="node">
<title>Federal Trifecta</title>
<polygon fill="#ffffff" stroke="#000000" stroke-width="3" points="689,-743 581,-743 581,-635 689,-635 689,-743"/>
<text text-anchor="middle" x="635" y="-685.2" font-family="garamond" font-size="16.00" fill="#000000">Federal Trifecta</text>
</g>
<!-- Federal Trifecta&#45;&#45;Ability to\nPass Legislation -->
<g id="edge6" class="edge">
<title>Federal Trifecta&#45;&#45;Ability to\nPass Legislation</title>
<path fill="none" stroke="#000000" d="M594.0637,-634.924C586.7319,-625.28 579.1508,-615.3347 572,-606 555.7225,-584.7514 537.731,-561.4411 522.0075,-541.1264"/>
</g>
<!-- Constitutional\nConvention -->
<g id="node17" class="node">
<title>Constitutional\nConvention</title>
<polygon fill="#ffffff" stroke="#000000" stroke-width="3" points="1444,-339 1336,-339 1336,-231 1444,-231 1444,-339"/>
<text text-anchor="middle" x="1390" y="-290.2" font-family="garamond" font-size="16.00" fill="#000000">Constitutional</text>
<text text-anchor="middle" x="1390" y="-272.2" font-family="garamond" font-size="16.00" fill="#000000">Convention</text>
</g>
<!-- Constitutional\nConvention&#45;&#45;SCOTUS\nterm limits -->
<g id="edge3" class="edge">
<title>Constitutional\nConvention&#45;&#45;SCOTUS\nterm limits</title>
<path fill="none" stroke="#000000" d="M1340.6914,-230.8677C1316.4205,-204.2225 1287.0561,-171.9855 1261.9477,-144.4208"/>
</g>
<!-- Constitutional\nConvention&#45;&#45;Removal of\nElectoral College -->
<g id="edge2" class="edge">
<title>Constitutional\nConvention&#45;&#45;Removal of\nElectoral College</title>
<path fill="none" stroke="#000000" d="M1390,-230.8677C1390,-211.0007 1390,-188.0249 1390,-166.1951"/>
</g>
<!-- Constitutional\nConvention&#45;&#45;Reform\nSenate -->
<g id="edge4" class="edge">
<title>Constitutional\nConvention&#45;&#45;Reform\nSenate</title>
<path fill="none" stroke="#000000" d="M1439.3086,-230.8677C1463.5795,-204.2225 1492.9439,-171.9855 1518.0523,-144.4208"/>
</g>
<!-- More\nState Trifectas -->
<g id="node18" class="node">
<title>More\nState Trifectas</title>
<polygon fill="#ffffff" stroke="#000000" stroke-width="3" points="1212,-916 1104,-916 1104,-808 1212,-808 1212,-916"/>
<text text-anchor="middle" x="1158" y="-867.2" font-family="garamond" font-size="16.00" fill="#000000">More</text>
<text text-anchor="middle" x="1158" y="-849.2" font-family="garamond" font-size="16.00" fill="#000000">State Trifectas</text>
</g>
<!-- More\nState Trifectas&#45;&#45;Fix Gerrymandering\nIn Some States -->
<g id="edge20" class="edge">
<title>More\nState Trifectas&#45;&#45;Fix Gerrymandering\nIn Some States</title>
<path fill="none" stroke="#000000" d="M1158,-807.7364C1158,-796.4399 1158,-784.2874 1158,-772.2201"/>
</g>
<!-- Majority of States\nWith Trifectas -->
<g id="node19" class="node">
<title>Majority of States\nWith Trifectas</title>
<polygon fill="#ffffff" stroke="#000000" stroke-width="3" points="1367,-743 1259,-743 1259,-635 1367,-635 1367,-743"/>
<text text-anchor="middle" x="1313" y="-694.2" font-family="garamond" font-size="16.00" fill="#000000">Majority of States</text>
<text text-anchor="middle" x="1313" y="-676.2" font-family="garamond" font-size="16.00" fill="#000000">With Trifectas</text>
</g>
<!-- More\nState Trifectas&#45;&#45;Majority of States\nWith Trifectas -->
<g id="edge21" class="edge">
<title>More\nState Trifectas&#45;&#45;Majority of States\nWith Trifectas</title>
<path fill="none" stroke="#000000" d="M1212.3779,-811.407C1225.0922,-798.876 1238.3233,-785.2378 1250,-772 1258.0179,-762.9102 1266.1542,-752.8931 1273.7978,-743.0567"/>
</g>
<!-- Majority of States\nWith Trifectas&#45;&#45;Interstate Electoral\nCollege Pact -->
<g id="edge18" class="edge">
<title>Majority of States\nWith Trifectas&#45;&#45;Interstate Electoral\nCollege Pact</title>
<path fill="none" stroke="#000000" d="M1292.0974,-634.8677C1283.7491,-613.2477 1273.9792,-587.9462 1264.905,-564.4463"/>
</g>
<!-- 2/3 of States\nWith Trifectas -->
<g id="node20" class="node">
<title>2/3 of States\nWith Trifectas</title>
<polygon fill="#ffffff" stroke="#000000" stroke-width="3" points="1444,-541 1336,-541 1336,-433 1444,-433 1444,-541"/>
<text text-anchor="middle" x="1390" y="-492.2" font-family="garamond" font-size="16.00" fill="#000000">2/3 of States</text>
<text text-anchor="middle" x="1390" y="-474.2" font-family="garamond" font-size="16.00" fill="#000000">With Trifectas</text>
</g>
<!-- Majority of States\nWith Trifectas&#45;&#45;2/3 of States\nWith Trifectas -->
<g id="edge19" class="edge">
<title>Majority of States\nWith Trifectas&#45;&#45;2/3 of States\nWith Trifectas</title>
<path fill="none" stroke="#000000" d="M1333.6346,-634.8677C1344.6824,-605.8852 1358.252,-570.2869 1369.3085,-541.2817"/>
</g>
<!-- 2/3 of States\nWith Trifectas&#45;&#45;Constitutional\nConvention -->
<g id="edge26" class="edge">
<title>2/3 of States\nWith Trifectas&#45;&#45;Constitutional\nConvention</title>
<path fill="none" stroke="#000000" d="M1390,-432.8677C1390,-403.8852 1390,-368.2869 1390,-339.2817"/>
</g>
<!-- House Majority -->
<g id="node21" class="node">
<title>House Majority</title>
<polygon fill="#ffffff" stroke="#000000" stroke-width="3" points="689,-916 581,-916 581,-808 689,-808 689,-916"/>
<text text-anchor="middle" x="635" y="-858.2" font-family="garamond" font-size="16.00" fill="#000000">House Majority</text>
</g>
<!-- House Majority&#45;&#45;Federal Trifecta -->
<g id="edge12" class="edge">
<title>House Majority&#45;&#45;Federal Trifecta</title>
<path fill="none" stroke="#000000" d="M635,-807.7364C635,-787.1252 635,-763.6645 635,-743.0711"/>
</g>
<!-- Senate Majority -->
<g id="node22" class="node">
<title>Senate Majority</title>
<polygon fill="#ffffff" stroke="#000000" stroke-width="3" points="815,-916 707,-916 707,-808 815,-808 815,-916"/>
<text text-anchor="middle" x="761" y="-858.2" font-family="garamond" font-size="16.00" fill="#000000">Senate Majority</text>
</g>
<!-- Senate Majority&#45;&#45;Expand\nSCOTUS -->
<g id="edge23" class="edge">
<title>Senate Majority&#45;&#45;Expand\nSCOTUS</title>
<path fill="none" stroke="#000000" d="M770.0962,-807.7364C772.0563,-796.0435 774.1701,-783.4335 776.2627,-770.9502"/>
</g>
<!-- Senate Majority&#45;&#45;Expand\nFederal Courts -->
<g id="edge22" class="edge">
<title>Senate Majority&#45;&#45;Expand\nFederal Courts</title>
<path fill="none" stroke="#000000" d="M815.2174,-814.6417C818.1554,-812.3549 821.0944,-810.1277 824,-808 848.4784,-790.0751 857.7511,-790.2342 882,-772 892.5738,-764.0489 903.3768,-755.128 913.6885,-746.162"/>
</g>
<!-- Senate Majority&#45;&#45;Abolish\nFilibuster -->
<g id="edge25" class="edge">
<title>Senate Majority&#45;&#45;Abolish\nFilibuster</title>
<path fill="none" stroke="#000000" d="M706.6859,-813.1296C703.8202,-811.2927 700.918,-809.5694 698,-808 646.7074,-780.4125 622.9383,-800.2363 572,-772 560.241,-765.4817 548.7401,-757.199 538.0721,-748.4019"/>
</g>
<!-- Senate Majority&#45;&#45;Federal Trifecta -->
<g id="edge24" class="edge">
<title>Senate Majority&#45;&#45;Federal Trifecta</title>
<path fill="none" stroke="#000000" d="M721.4785,-807.7364C706.4669,-787.1252 689.3799,-763.6645 674.3812,-743.0711"/>
</g>
<!-- Presidency -->
<g id="node23" class="node">
<title>Presidency</title>
<polygon fill="#ffffff" stroke="#000000" stroke-width="3" points="941,-916 833,-916 833,-808 941,-808 941,-916"/>
<text text-anchor="middle" x="887" y="-858.2" font-family="garamond" font-size="16.00" fill="#000000">Presidency</text>
</g>
<!-- Presidency&#45;&#45;Expand\nSCOTUS -->
<g id="edge28" class="edge">
<title>Presidency&#45;&#45;Expand\nSCOTUS</title>
<path fill="none" stroke="#000000" d="M856.5747,-807.7364C848.3518,-793.0707 839.3199,-776.9624 830.6339,-761.4708"/>
</g>
<!-- Presidency&#45;&#45;Expand\nFederal Courts -->
<g id="edge27" class="edge">
<title>Presidency&#45;&#45;Expand\nFederal Courts</title>
<path fill="none" stroke="#000000" d="M914.2886,-807.7364C921.3649,-793.6653 929.109,-778.2661 936.6062,-763.3578"/>
</g>
<!-- Presidency&#45;&#45;Federal Trifecta -->
<g id="edge29" class="edge">
<title>Presidency&#45;&#45;Federal Trifecta</title>
<path fill="none" stroke="#000000" d="M832.6859,-813.1296C829.8202,-811.2927 826.918,-809.5694 824,-808 772.7074,-780.4125 746.071,-804.8814 698,-772 686.8013,-764.3399 676.757,-754.0442 668.1519,-743.3146"/>
</g>
<!-- Click Here to\nGet Out\nThe Vote! -->
<g id="node24" class="node">
<title>Click Here to\nGet Out\nThe Vote!</title>
<g id="a_node24"><a xlink:href="/gotv" xlink:title="Click Here to\nGet Out\nThe Vote!">
<polygon fill="#ffffff" stroke="#0000ff" stroke-width="5" points="932,-1168 716,-1168 716,-952 932,-952 932,-1168"/>
<text text-anchor="middle" x="824" y="-1094" font-family="garamond" font-size="40.00" fill="#ff0000">Click Here to</text>
<text text-anchor="middle" x="824" y="-1050" font-family="garamond" font-size="40.00" fill="#ff0000">Get Out</text>
<text text-anchor="middle" x="824" y="-1006" font-family="garamond" font-size="40.00" fill="#ff0000">The Vote!</text>
</a>
</g>
</g>
<!-- Click Here to\nGet Out\nThe Vote!&#45;&#45;More\nState Trifectas -->
<g id="edge9" class="edge">
<title>Click Here to\nGet Out\nThe Vote!&#45;&#45;More\nState Trifectas</title>
<path fill="none" stroke="#000000" d="M932.4402,-995.7151C989.7748,-961.7263 1057.6534,-921.4869 1103.8628,-894.0933"/>
</g>
<!-- Click Here to\nGet Out\nThe Vote!&#45;&#45;House Majority -->
<g id="edge8" class="edge">
<title>Click Here to\nGet Out\nThe Vote!&#45;&#45;House Majority</title>
<path fill="none" stroke="#000000" d="M720.6522,-951.7308C708.9318,-939.4523 697.3945,-927.3657 686.77,-916.2353"/>
</g>
<!-- Click Here to\nGet Out\nThe Vote!&#45;&#45;Senate Majority -->
<g id="edge10" class="edge">
<title>Click Here to\nGet Out\nThe Vote!&#45;&#45;Senate Majority</title>
<path fill="none" stroke="#000000" d="M789.5507,-951.7308C785.6439,-939.4523 781.7982,-927.3657 778.2567,-916.2353"/>
</g>
<!-- Click Here to\nGet Out\nThe Vote!&#45;&#45;Presidency -->
<g id="edge11" class="edge">
<title>Click Here to\nGet Out\nThe Vote!&#45;&#45;Presidency</title>
<path fill="none" stroke="#000000" d="M858.4493,-951.7308C862.3561,-939.4523 866.2018,-927.3657 869.7433,-916.2353"/>
</g>
</g>
</svg>
