<svg height="406pt" viewBox="0 0 1515.18 406" width="1515pt" xmlns="http://www.w3.org/2000/svg"><g transform="translate(4 402)"><g><ellipse cx="544.5081" cy="-218" fill="none" rx="75.2868" ry="18" stroke="#ffd700"/><text font-family="Times,serif" font-size="14" text-anchor="middle" x="544.5081" y="-214.3">Expand SCOTUS</text></g><g><ellipse cx="850.8841" cy="-218" fill="none" rx="91.784" ry="18" stroke="#000"/><text font-family="Times,serif" font-size="14" text-anchor="middle" x="850.8841" y="-214.3">Undo Citizen's United</text></g><g stroke="#000"><path d="m620.2415-218h128.5901" fill="none"/><path d="m749.0942-221.5001 10 3.5001-10.0001 3.4999z"/></g><g><ellipse cx="1388.2428" cy="-380" fill="none" rx="87.9851" ry="18" stroke="#ffd700"/><text font-family="Times,serif" font-size="14" text-anchor="middle" x="1388.2428" y="-376.3">SCOTUS term limits</text></g><g><ellipse cx="544.5081" cy="-164" fill="none" rx="94.7833" ry="18" stroke="#ffd700"/><text font-family="Times,serif" font-size="14" text-anchor="middle" x="544.5081" y="-160.3">Expand Federal Courts</text></g><g><ellipse cx="1124.113" cy="-195" fill="none" rx="109.381" ry="18" stroke="#ffd700"/><text font-family="Times,serif" font-size="14" text-anchor="middle" x="1124.113" y="-191.3">Campaign Finance Reform</text></g><g><ellipse cx="850.8841" cy="-72" fill="none" rx="123.4781" ry="18" stroke="#ffd700"/><text font-family="Times,serif" font-size="14" text-anchor="middle" x="850.8841" y="-68.3">Federal Gerrymandering Rules</text></g><g><ellipse cx="544.5081" cy="-326" fill="none" rx="142.1749" ry="18" stroke="#ffd700"/><text font-family="Times,serif" font-size="14" text-anchor="middle" x="544.5081" y="-322.3">Fix Gerrymandering In Some States</text></g><g><ellipse cx="850.8841" cy="-272" fill="none" rx="128.0773" ry="18" stroke="#ffd700"/><text font-family="Times,serif" font-size="14" text-anchor="middle" x="850.8841" y="-268.3">Interstate Electoral College Pact</text></g><g><ellipse cx="1388.2428" cy="-326" fill="none" rx="118.8789" ry="18" stroke="#ffd700"/><text font-family="Times,serif" font-size="14" text-anchor="middle" x="1388.2428" y="-322.3">Removal of Electoral College</text></g><g><ellipse cx="850.8841" cy="-126" fill="none" rx="100.9827" ry="18" stroke="#ffd700"/><text font-family="Times,serif" font-size="14" text-anchor="middle" x="850.8841" y="-122.3">Statehood for Territories</text></g><g><ellipse cx="850.8841" cy="-18" fill="none" rx="74.9875" ry="18" stroke="#ffd700"/><text font-family="Times,serif" font-size="14" text-anchor="middle" x="850.8841" y="-14.3">Statehood for DC</text></g><g><ellipse cx="1388.2428" cy="-272" fill="none" rx="96.3833" ry="18" stroke="#ffd700"/><text font-family="Times,serif" font-size="14" text-anchor="middle" x="1388.2428" y="-268.3">Abolish/Reform Senate</text></g><g><ellipse cx="544.5081" cy="-37" fill="none" rx="76.8869" ry="18" stroke="#ffd700"/><text font-family="Times,serif" font-size="14" text-anchor="middle" x="544.5081" y="-33.3">Abolish Filibuster</text></g><g stroke="#000"><path d="m618.6732-32.4006c45.207 2.8035 103.0579 6.3911 149.7075 9.2841" fill="none"/><path d="m768.695-26.6038 9.7642 4.1123-10.1975 2.8743z"/></g><g stroke="#000"><path d="m935.4643-210.8802c25.5711 2.1526 54.0017 4.5458 80.8727 6.8078" fill="none"/><path d="m1016.8789-207.5393 9.6711 4.3266-10.2584 2.6488z"/></g><g><ellipse cx="544.5081" cy="-110" fill="none" rx="68.7879" ry="18" stroke="#000"/><text font-family="Times,serif" font-size="14" text-anchor="middle" x="544.5081" y="-106.3">Federal Trifecta</text></g><g stroke="#000"><g><path d="m605.5216-118.3959c25.4672-4.3193 55.1558-10.4278 81.3238-18.6041 16.7123-5.2218 19.0851-11.4775 36-16 92.9589-24.8542 201.6998-35.1282 282.5164-39.3131" fill="none"/><path d="m1005.4143-195.8198 10.1604 3.0025-9.8152 3.989z"/></g><g><path d="m606.8771-102.2643c40.0981 4.9734 93.1895 11.5583 139.6076 17.3156" fill="none"/><path d="m747.0938-88.4001 9.4932 4.7044-10.3548 2.2424z"/></g><g><path d="m612.1229-113.5311c38.6642-2.0192 88.0369-4.5976 131.8399-6.8851" fill="none"/><path d="m743.9209-123.9187 10.1689 2.9736-9.8038 4.0169z"/></g><g><path d="m592.052-96.8812c28.0239 8.2843 63.9253 19.863 94.7934 32.8812 16.6699 7.0303 18.985 12.8521 36 19 17.3965 6.2857 36.6792 11.3043 54.8883 15.226" fill="none"/><path d="m778.6376-33.1612 9.0831 5.4541-10.5018 1.4006z"/></g></g><g><ellipse cx="1124.113" cy="-326" fill="none" rx="107.4815" ry="18" stroke="#000"/><text font-family="Times,serif" font-size="14" text-anchor="middle" x="1124.113" y="-322.3">Constitutional Convention</text></g><g stroke="#000"><path d="m1192.4765-339.9766c37.8848-7.7453 84.9662-17.3709 123.4625-25.2413" fill="none"/><path d="m1315.5425-368.7091 10.4984 1.426-9.0962 5.4321z"/></g><g stroke="#000"><path d="m1231.5447-326h27.6806" fill="none"/><path d="m1259.2654-329.5001 9.9999 3.5001-10 3.4999z"/></g><g stroke="#000"><path d="m1192.4765-312.0234c36.9026 7.5445 82.5311 16.873 120.4513 24.6256" fill="none"/><path d="m1313.801-290.7917 9.0963 5.4321-10.4984 1.426z"/></g><g><ellipse cx="280.3783" cy="-272" fill="none" rx="85.5853" ry="18" stroke="#000"/><text font-family="Times,serif" font-size="14" text-anchor="middle" x="280.3783" y="-268.3">More State Trifectas</text></g><g stroke="#000"><path d="m338.5337-285.2737c20.1266-4.4924 42.8473-9.4511 63.637-13.7263 16.6816-3.4304 34.4964-6.935 51.678-10.2346" fill="none"/><path d="m453.3991-312.7119 10.4793 1.5604-9.1651 5.3151z"/></g><g><ellipse cx="544.5081" cy="-272" fill="none" rx="131.077" ry="18" stroke="#000"/><text font-family="Times,serif" font-size="14" text-anchor="middle" x="544.5081" y="-268.3">Majority of States With Trifectas</text></g><g stroke="#000"><path d="m366.4988-272h36.1336" fill="none"/><path d="m402.9835-275.5001 10 3.5001-10 3.4999z"/></g><g stroke="#000"><path d="m676.2171-272h36.3476" fill="none"/><path d="m712.6867-275.5001 10 3.5001-10 3.4999z"/></g><g><ellipse cx="850.8841" cy="-326" fill="none" rx="111.2805" ry="18" stroke="#000"/><text font-family="Times,serif" font-size="14" text-anchor="middle" x="850.8841" y="-322.3">2/3 of States With Trifectas</text></g><g stroke="#000"><path d="m625.4055-286.2585c43.1744-7.6097 96.2893-16.9714 140.1207-24.6968" fill="none"/><path d="m765.1351-314.4403 10.4558 1.711-9.2407 5.1828z"/></g><g stroke="#000"><path d="m962.4108-326h44.0086" fill="none"/><path d="m1006.4743-329.5001 10 3.5001-10.0001 3.4999z"/></g><g><ellipse cx="280.3783" cy="-218" fill="none" rx="50.8918" ry="18" stroke="#000"/><text font-family="Times,serif" font-size="14" text-anchor="middle" x="280.3783" y="-214.3">Presidency</text></g><g stroke="#000"><path d="m331.3052-218h127.4274" fill="none"/><path d="m458.9849-221.5001 9.9999 3.5001-10 3.4999z"/></g><g stroke="#000"><path d="m323.1468-208.182c23.3217 5.2688 52.7186 11.7726 79.0239 17.182 20.6427 4.2449 43.0207 8.6035 63.7866 12.5466" fill="none"/><path d="m466.8316-181.8502 9.1758 5.2969-10.4762 1.5813z"/></g><g stroke="#000"><path d="m325.861-209.8324c13.8852 4.041 28.5705 10.0216 40.3097 18.8324 23.0695 17.3146 11.9541 38.069 36 54 18.7285 12.408 41.7156 19.4444 63.7096 23.3471" fill="none"/><path d="m466.5648-117.0883 9.3322 5.0161-10.4234 1.8984z"/></g><g><ellipse cx="280.3783" cy="-164" fill="none" rx="68.7879" ry="18" stroke="#000"/><text font-family="Times,serif" font-size="14" text-anchor="middle" x="280.3783" y="-160.3">Senate Majority</text></g><g stroke="#000"><path d="m332.4583-175.9142c21.545-4.8328 46.8013-10.3744 69.7124-15.0858 23.4995-4.8324 49.2477-9.8121 72.3066-14.1584" fill="none"/><path d="m474.0475-208.6388 10.4741 1.5949-9.1826 5.2849z"/></g><g stroke="#000"><path d="m349.4303-164h89.9272" fill="none"/><path d="m439.5302-167.5001 10 3.5001-10.0001 3.4999z"/></g><g stroke="#000"><path d="m335.2451-152.8238c10.9155 3.8458 21.809 8.9814 30.9256 15.8238 23.0695 17.3146 12.9971 36.5969 36 54 20.3868 15.4239 46.1408 25.7875 70.1201 32.702" fill="none"/><path d="m473.3531-53.6363 8.7294 6.004-10.5682.7502z"/></g><g stroke="#000"><path d="m332.4583-152.0858c21.545 4.8328 46.8013 10.3744 69.7124 15.0858 24.6827 5.0757 51.8464 10.3139 75.7687 14.8101" fill="none"/><path d="m478.7914-125.5913 9.1853 5.2802-10.4733 1.6003z"/></g><g><ellipse cx="280.3783" cy="-110" fill="none" rx="68.4888" ry="18" stroke="#000"/><text font-family="Times,serif" font-size="14" text-anchor="middle" x="280.3783" y="-106.3">House Majority</text></g><g stroke="#000"><path d="m348.7418-110h116.4947" fill="none"/><path d="m465.5134-113.5001 9.9999 3.5001-10 3.4999z"/></g><g><ellipse cx="79.293" cy="-191" fill="none" rx="79.0865" ry="18" stroke="#000"/><text font-family="Times,serif" font-size="14" text-anchor="middle" x="79.293" y="-187.3">Get Out The Vote!</text></g><g stroke="#000"><path d="m111.5878-207.54c22.8406-11.3465 54.3705-26.3082 82.9981-37.46 8.2456-3.2121 17.0449-6.3252 25.7486-9.2257" fill="none"/><path d="m219.4937-257.6328 10.5924.2287-8.4231 6.4267z"/></g><g stroke="#000"><path d="m147.6519-200.1786c24.3984-3.276 51.6234-6.9316 75.0351-10.0751" fill="none"/><path d="m222.4316-213.7507 10.3769 2.138-9.4453 4.7997z"/></g><g stroke="#000"><path d="m147.6519-181.8214c19.7725 2.6549 41.4013 5.5591 61.3526 8.2379" fill="none"/><path d="m209.5109-177.047 9.4452 4.7998-10.3768 2.138z"/></g><g stroke="#000"><path d="m111.5878-174.46c22.8406 11.3465 54.3705 26.3082 82.9981 37.46 9.5926 3.7368 19.9346 7.3396 30.0036 10.6297" fill="none"/><path d="m225.6694-129.6997 8.457 6.3821-10.591.2847z"/></g></g></svg>