<?xml version="1.0" encoding="UTF-8" standalone="no"?>
<!DOCTYPE svg PUBLIC "-//W3C//DTD SVG 1.1//EN"
 "http://www.w3.org/Graphics/SVG/1.1/DTD/svg11.dtd">
<!-- Generated by graphviz version 2.40.1 (20161225.0304)
 -->
<!-- Title: G Pages: 1 -->
<svg width="1593pt" height="503pt"
 viewBox="0.00 0.00 1593.18 503.00" xmlns="http://www.w3.org/2000/svg" xmlns:xlink="http://www.w3.org/1999/xlink">
<g id="graph0" class="graph" transform="scale(1 1) rotate(0) translate(4 499)">
<title>G</title>
<!-- Expand SCOTUS -->
<g id="node1" class="node">
<title>Expand SCOTUS</title>
<ellipse fill="none" stroke="#ffd700" cx="593.9037" cy="-261" rx="75.2868" ry="18"/>
<text text-anchor="middle" x="593.9037" y="-257.3" font-family="Times,serif" font-size="14.00" fill="#000000">Expand SCOTUS</text>
</g>
<!-- Undo Citizen&#39;s United -->
<g id="node15" class="node">
<title>Undo Citizen&#39;s United</title>
<ellipse fill="none" stroke="#000000" cx="900.2797" cy="-261" rx="91.784" ry="18"/>
<text text-anchor="middle" x="900.2797" y="-257.3" font-family="Times,serif" font-size="14.00" fill="#000000">Undo Citizen&#39;s United</text>
</g>
<!-- Expand SCOTUS&#45;&gt;Undo Citizen&#39;s United -->
<g id="edge5" class="edge">
<title>Expand SCOTUS&#45;&gt;Undo Citizen&#39;s United</title>
<path fill="none" stroke="#000000" d="M669.6371,-261C708.4347,-261 756.2274,-261 798.2273,-261"/>
<polygon fill="#000000" stroke="#000000" points="798.4898,-264.5001 808.4898,-261 798.4897,-257.5001 798.4898,-264.5001"/>
</g>
<!-- SCOTUS term limits -->
<g id="node2" class="node">
<title>SCOTUS term limits</title>
<ellipse fill="none" stroke="#ffd700" cx="1466.2359" cy="-126" rx="87.9851" ry="18"/>
<text text-anchor="middle" x="1466.2359" y="-122.3" font-family="Times,serif" font-size="14.00" fill="#000000">SCOTUS term limits</text>
</g>
<!-- Expand Federal Courts -->
<g id="node3" class="node">
<title>Expand Federal Courts</title>
<ellipse fill="none" stroke="#ffd700" cx="593.9037" cy="-207" rx="94.7833" ry="18"/>
<text text-anchor="middle" x="593.9037" y="-203.3" font-family="Times,serif" font-size="14.00" fill="#000000">Expand Federal Courts</text>
</g>
<!-- Campaign Finance Reform -->
<g id="node4" class="node">
<title>Campaign Finance Reform</title>
<ellipse fill="none" stroke="#ffd700" cx="1187.8074" cy="-261" rx="109.381" ry="18"/>
<text text-anchor="middle" x="1187.8074" y="-257.3" font-family="Times,serif" font-size="14.00" fill="#000000">Campaign Finance Reform</text>
</g>
<!-- Federal Gerrymandering Rules -->
<g id="node5" class="node">
<title>Federal Gerrymandering Rules</title>
<ellipse fill="none" stroke="#ffd700" cx="1187.8074" cy="-369" rx="123.4781" ry="18"/>
<text text-anchor="middle" x="1187.8074" y="-365.3" font-family="Times,serif" font-size="14.00" fill="#000000">Federal Gerrymandering Rules</text>
</g>
<!-- Fix Gerrymandering In Some States -->
<g id="node6" class="node">
<title>Fix Gerrymandering In Some States</title>
<ellipse fill="none" stroke="#ffd700" cx="593.9037" cy="-153" rx="142.1749" ry="18"/>
<text text-anchor="middle" x="593.9037" y="-149.3" font-family="Times,serif" font-size="14.00" fill="#000000">Fix Gerrymandering In Some States</text>
</g>
<!-- Interstate Electoral College Pact -->
<g id="node7" class="node">
<title>Interstate Electoral College Pact</title>
<ellipse fill="none" stroke="#ffd700" cx="900.2797" cy="-126" rx="128.0773" ry="18"/>
<text text-anchor="middle" x="900.2797" y="-122.3" font-family="Times,serif" font-size="14.00" fill="#000000">Interstate Electoral College Pact</text>
</g>
<!-- Removal of Electoral College -->
<g id="node8" class="node">
<title>Removal of Electoral College</title>
<ellipse fill="none" stroke="#ffd700" cx="1466.2359" cy="-72" rx="118.8789" ry="18"/>
<text text-anchor="middle" x="1466.2359" y="-68.3" font-family="Times,serif" font-size="14.00" fill="#000000">Removal of Electoral College</text>
</g>
<!-- Statehood for Territories -->
<g id="node9" class="node">
<title>Statehood for Territories</title>
<ellipse fill="none" stroke="#ffd700" cx="1187.8074" cy="-315" rx="100.9827" ry="18"/>
<text text-anchor="middle" x="1187.8074" y="-311.3" font-family="Times,serif" font-size="14.00" fill="#000000">Statehood for Territories</text>
</g>
<!-- Statehood for DC -->
<g id="node10" class="node">
<title>Statehood for DC</title>
<ellipse fill="none" stroke="#ffd700" cx="1187.8074" cy="-477" rx="74.9875" ry="18"/>
<text text-anchor="middle" x="1187.8074" y="-473.3" font-family="Times,serif" font-size="14.00" fill="#000000">Statehood for DC</text>
</g>
<!-- Abolish/Reform Senate -->
<g id="node11" class="node">
<title>Abolish/Reform Senate</title>
<ellipse fill="none" stroke="#ffd700" cx="1466.2359" cy="-18" rx="96.3833" ry="18"/>
<text text-anchor="middle" x="1466.2359" y="-14.3" font-family="Times,serif" font-size="14.00" fill="#000000">Abolish/Reform Senate</text>
</g>
<!-- Abolish Filibuster -->
<g id="node12" class="node">
<title>Abolish Filibuster</title>
<ellipse fill="none" stroke="#ffd700" cx="593.9037" cy="-369" rx="76.8869" ry="18"/>
<text text-anchor="middle" x="593.9037" y="-365.3" font-family="Times,serif" font-size="14.00" fill="#000000">Abolish Filibuster</text>
</g>
<!-- Ability to Pass Legislation -->
<g id="node14" class="node">
<title>Ability to Pass Legislation</title>
<ellipse fill="none" stroke="#000000" cx="900.2797" cy="-369" rx="107.4815" ry="18"/>
<text text-anchor="middle" x="900.2797" y="-365.3" font-family="Times,serif" font-size="14.00" fill="#000000">Ability to Pass Legislation</text>
</g>
<!-- Abolish Filibuster&#45;&gt;Ability to Pass Legislation -->
<g id="edge7" class="edge">
<title>Abolish Filibuster&#45;&gt;Ability to Pass Legislation</title>
<path fill="none" stroke="#000000" d="M670.8198,-369C704.6014,-369 745.0269,-369 782.4695,-369"/>
<polygon fill="#000000" stroke="#000000" points="782.9431,-372.5001 792.9431,-369 782.9431,-365.5001 782.9431,-372.5001"/>
</g>
<!-- Expand House -->
<g id="node13" class="node">
<title>Expand House</title>
<ellipse fill="none" stroke="#ffd700" cx="1187.8074" cy="-423" rx="64.189" ry="18"/>
<text text-anchor="middle" x="1187.8074" y="-419.3" font-family="Times,serif" font-size="14.00" fill="#000000">Expand House</text>
</g>
<!-- Ability to Pass Legislation&#45;&gt;Campaign Finance Reform -->
<g id="edge13" class="edge">
<title>Ability to Pass Legislation&#45;&gt;Campaign Finance Reform</title>
<path fill="none" stroke="#000000" d="M929.8566,-351.6414C961.9893,-333.4475 1015.3084,-305.1692 1064.3183,-288 1076.6966,-283.6636 1090.0258,-279.8804 1103.1873,-276.6284"/>
<polygon fill="#000000" stroke="#000000" points="1104.2831,-279.9654 1113.2007,-274.2448 1102.662,-273.1557 1104.2831,-279.9654"/>
</g>
<!-- Ability to Pass Legislation&#45;&gt;Federal Gerrymandering Rules -->
<g id="edge16" class="edge">
<title>Ability to Pass Legislation&#45;&gt;Federal Gerrymandering Rules</title>
<path fill="none" stroke="#000000" d="M1007.7533,-369C1022.8006,-369 1038.4155,-369 1053.8779,-369"/>
<polygon fill="#000000" stroke="#000000" points="1054.0095,-372.5001 1064.0095,-369 1054.0094,-365.5001 1054.0095,-372.5001"/>
</g>
<!-- Ability to Pass Legislation&#45;&gt;Statehood for Territories -->
<g id="edge17" class="edge">
<title>Ability to Pass Legislation&#45;&gt;Statehood for Territories</title>
<path fill="none" stroke="#000000" d="M972.0934,-355.5128C1013.3627,-347.7621 1065.2901,-338.0097 1107.8548,-330.0157"/>
<polygon fill="#000000" stroke="#000000" points="1108.7189,-333.4147 1117.901,-328.129 1107.4268,-326.535 1108.7189,-333.4147"/>
</g>
<!-- Ability to Pass Legislation&#45;&gt;Statehood for DC -->
<g id="edge14" class="edge">
<title>Ability to Pass Legislation&#45;&gt;Statehood for DC</title>
<path fill="none" stroke="#000000" d="M929.8566,-386.3586C961.9893,-404.5525 1015.3084,-432.8308 1064.3183,-450 1080.8527,-455.7923 1099.0836,-460.5977 1116.3452,-464.4684"/>
<polygon fill="#000000" stroke="#000000" points="1115.8622,-467.9448 1126.3763,-466.6398 1117.3432,-461.1033 1115.8622,-467.9448"/>
</g>
<!-- Ability to Pass Legislation&#45;&gt;Expand House -->
<g id="edge15" class="edge">
<title>Ability to Pass Legislation&#45;&gt;Expand House</title>
<path fill="none" stroke="#000000" d="M972.0934,-382.4872C1018.7946,-391.2581 1079.1441,-402.5922 1124.1297,-411.0408"/>
<polygon fill="#000000" stroke="#000000" points="1123.5861,-414.4998 1134.0603,-412.9059 1124.8782,-407.6201 1123.5861,-414.4998"/>
</g>
<!-- Undo Citizen&#39;s United&#45;&gt;Campaign Finance Reform -->
<g id="edge1" class="edge">
<title>Undo Citizen&#39;s United&#45;&gt;Campaign Finance Reform</title>
<path fill="none" stroke="#000000" d="M992.0458,-261C1016.3483,-261 1042.942,-261 1068.4763,-261"/>
<polygon fill="#000000" stroke="#000000" points="1068.581,-264.5001 1078.581,-261 1068.5809,-257.5001 1068.581,-264.5001"/>
</g>
<!-- Federal Trifecta -->
<g id="node16" class="node">
<title>Federal Trifecta</title>
<ellipse fill="none" stroke="#000000" cx="593.9037" cy="-315" rx="68.7879" ry="18"/>
<text text-anchor="middle" x="593.9037" y="-311.3" font-family="Times,serif" font-size="14.00" fill="#000000">Federal Trifecta</text>
</g>
<!-- Federal Trifecta&#45;&gt;Ability to Pass Legislation -->
<g id="edge6" class="edge">
<title>Federal Trifecta&#45;&gt;Ability to Pass Legislation</title>
<path fill="none" stroke="#000000" d="M651.1713,-325.0936C697.6248,-333.2813 763.7699,-344.9396 816.2275,-354.1855"/>
<polygon fill="#000000" stroke="#000000" points="815.7348,-357.6525 826.1906,-355.9415 816.9499,-350.7588 815.7348,-357.6525"/>
</g>
<!-- Constitutional Convention -->
<g id="node17" class="node">
<title>Constitutional Convention</title>
<ellipse fill="none" stroke="#000000" cx="1187.8074" cy="-72" rx="107.4815" ry="18"/>
<text text-anchor="middle" x="1187.8074" y="-68.3" font-family="Times,serif" font-size="14.00" fill="#000000">Constitutional Convention</text>
</g>
<!-- Constitutional Convention&#45;&gt;SCOTUS term limits -->
<g id="edge3" class="edge">
<title>Constitutional Convention&#45;&gt;SCOTUS term limits</title>
<path fill="none" stroke="#000000" d="M1258.0666,-85.6265C1298.994,-93.5642 1350.5589,-103.565 1392.128,-111.6271"/>
<polygon fill="#000000" stroke="#000000" points="1391.7115,-115.1115 1402.195,-113.5795 1393.0443,-108.2395 1391.7115,-115.1115"/>
</g>
<!-- Constitutional Convention&#45;&gt;Removal of Electoral College -->
<g id="edge2" class="edge">
<title>Constitutional Convention&#45;&gt;Removal of Electoral College</title>
<path fill="none" stroke="#000000" d="M1295.0568,-72C1308.74,-72 1322.8587,-72 1336.8445,-72"/>
<polygon fill="#000000" stroke="#000000" points="1336.9968,-75.5001 1346.9968,-72 1336.9967,-68.5001 1336.9968,-75.5001"/>
</g>
<!-- Constitutional Convention&#45;&gt;Abolish/Reform Senate -->
<g id="edge4" class="edge">
<title>Constitutional Convention&#45;&gt;Abolish/Reform Senate</title>
<path fill="none" stroke="#000000" d="M1258.0666,-58.3735C1298.1011,-50.609 1348.3139,-40.8705 1389.393,-32.9033"/>
<polygon fill="#000000" stroke="#000000" points="1390.2065,-36.3109 1399.3572,-30.9708 1388.8737,-29.4389 1390.2065,-36.3109"/>
</g>
<!-- More State Trifectas -->
<g id="node18" class="node">
<title>More State Trifectas</title>
<ellipse fill="none" stroke="#000000" cx="329.7739" cy="-153" rx="85.5853" ry="18"/>
<text text-anchor="middle" x="329.7739" y="-149.3" font-family="Times,serif" font-size="14.00" fill="#000000">More State Trifectas</text>
</g>
<!-- More State Trifectas&#45;&gt;Fix Gerrymandering In Some States -->
<g id="edge20" class="edge">
<title>More State Trifectas&#45;&gt;Fix Gerrymandering In Some States</title>
<path fill="none" stroke="#000000" d="M415.8944,-153C424.1178,-153 432.6128,-153 441.2277,-153"/>
<polygon fill="#000000" stroke="#000000" points="441.3869,-156.5001 451.3869,-153 441.3869,-149.5001 441.3869,-156.5001"/>
</g>
<!-- Majority of States With Trifectas -->
<g id="node19" class="node">
<title>Majority of States With Trifectas</title>
<ellipse fill="none" stroke="#000000" cx="593.9037" cy="-99" rx="131.077" ry="18"/>
<text text-anchor="middle" x="593.9037" y="-95.3" font-family="Times,serif" font-size="14.00" fill="#000000">Majority of States With Trifectas</text>
</g>
<!-- More State Trifectas&#45;&gt;Majority of States With Trifectas -->
<g id="edge21" class="edge">
<title>More State Trifectas&#45;&gt;Majority of States With Trifectas</title>
<path fill="none" stroke="#000000" d="M387.9293,-139.7263C408.0559,-135.2339 430.7766,-130.2752 451.5663,-126 468.7628,-122.4637 487.1635,-118.8486 504.8333,-115.4605"/>
<polygon fill="#000000" stroke="#000000" points="505.9713,-118.8066 515.138,-113.4942 504.6591,-111.9307 505.9713,-118.8066"/>
</g>
<!-- Majority of States With Trifectas&#45;&gt;Interstate Electoral College Pact -->
<g id="edge18" class="edge">
<title>Majority of States With Trifectas&#45;&gt;Interstate Electoral College Pact</title>
<path fill="none" stroke="#000000" d="M704.5125,-108.7476C729.5552,-110.9546 756.2471,-113.3068 781.6076,-115.5418"/>
<polygon fill="#000000" stroke="#000000" points="781.3609,-119.0335 791.6296,-116.425 781.9755,-112.0605 781.3609,-119.0335"/>
</g>
<!-- 2/3 of States With Trifectas -->
<g id="node20" class="node">
<title>2/3 of States With Trifectas</title>
<ellipse fill="none" stroke="#000000" cx="900.2797" cy="-72" rx="111.2805" ry="18"/>
<text text-anchor="middle" x="900.2797" y="-68.3" font-family="Times,serif" font-size="14.00" fill="#000000">2/3 of States With Trifectas</text>
</g>
<!-- Majority of States With Trifectas&#45;&gt;2/3 of States With Trifectas -->
<g id="edge19" class="edge">
<title>Majority of States With Trifectas&#45;&gt;2/3 of States With Trifectas</title>
<path fill="none" stroke="#000000" d="M704.5125,-89.2524C733.1841,-86.7256 764.0175,-84.0084 792.5395,-81.4948"/>
<polygon fill="#000000" stroke="#000000" points="792.8703,-84.9793 802.5244,-80.6149 792.2557,-78.0064 792.8703,-84.9793"/>
</g>
<!-- 2/3 of States With Trifectas&#45;&gt;Constitutional Convention -->
<g id="edge26" class="edge">
<title>2/3 of States With Trifectas&#45;&gt;Constitutional Convention</title>
<path fill="none" stroke="#000000" d="M1011.4454,-72C1030.689,-72 1050.7552,-72 1070.1641,-72"/>
<polygon fill="#000000" stroke="#000000" points="1070.246,-75.5001 1080.2459,-72 1070.2459,-68.5001 1070.246,-75.5001"/>
</g>
<!-- House Majority -->
<g id="node21" class="node">
<title>House Majority</title>
<ellipse fill="none" stroke="#000000" cx="329.7739" cy="-315" rx="68.4888" ry="18"/>
<text text-anchor="middle" x="329.7739" y="-311.3" font-family="Times,serif" font-size="14.00" fill="#000000">House Majority</text>
</g>
<!-- House Majority&#45;&gt;Federal Trifecta -->
<g id="edge12" class="edge">
<title>House Majority&#45;&gt;Federal Trifecta</title>
<path fill="none" stroke="#000000" d="M398.1374,-315C433.7652,-315 477.5266,-315 514.6321,-315"/>
<polygon fill="#000000" stroke="#000000" points="514.909,-318.5001 524.9089,-315 514.9089,-311.5001 514.909,-318.5001"/>
</g>
<!-- Senate Majority -->
<g id="node22" class="node">
<title>Senate Majority</title>
<ellipse fill="none" stroke="#000000" cx="329.7739" cy="-261" rx="68.7879" ry="18"/>
<text text-anchor="middle" x="329.7739" y="-257.3" font-family="Times,serif" font-size="14.00" fill="#000000">Senate Majority</text>
</g>
<!-- Senate Majority&#45;&gt;Expand SCOTUS -->
<g id="edge23" class="edge">
<title>Senate Majority&#45;&gt;Expand SCOTUS</title>
<path fill="none" stroke="#000000" d="M398.8259,-261C432.2141,-261 472.6208,-261 507.98,-261"/>
<polygon fill="#000000" stroke="#000000" points="508.2921,-264.5001 518.2921,-261 508.292,-257.5001 508.2921,-264.5001"/>
</g>
<!-- Senate Majority&#45;&gt;Expand Federal Courts -->
<g id="edge22" class="edge">
<title>Senate Majority&#45;&gt;Expand Federal Courts</title>
<path fill="none" stroke="#000000" d="M381.8539,-249.0858C403.399,-244.253 428.6552,-238.7114 451.5663,-234 472.209,-229.7551 494.587,-225.3965 515.3529,-221.4534"/>
<polygon fill="#000000" stroke="#000000" points="516.2272,-224.8502 525.403,-219.5533 514.9268,-217.972 516.2272,-224.8502"/>
</g>
<!-- Senate Majority&#45;&gt;Abolish Filibuster -->
<g id="edge25" class="edge">
<title>Senate Majority&#45;&gt;Abolish Filibuster</title>
<path fill="none" stroke="#000000" d="M384.6407,-272.1762C395.5563,-276.022 406.4497,-281.1576 415.5663,-288 438.6359,-305.3146 427.5204,-326.069 451.5663,-342 468.3377,-353.1114 488.5241,-359.9152 508.3543,-364.0184"/>
<polygon fill="#000000" stroke="#000000" points="507.8857,-367.4911 518.3565,-365.8746 509.163,-360.6086 507.8857,-367.4911"/>
</g>
<!-- Senate Majority&#45;&gt;Federal Trifecta -->
<g id="edge24" class="edge">
<title>Senate Majority&#45;&gt;Federal Trifecta</title>
<path fill="none" stroke="#000000" d="M381.8539,-272.9142C403.399,-277.747 428.6552,-283.2886 451.5663,-288 476.249,-293.0757 503.4127,-298.3139 527.335,-302.8101"/>
<polygon fill="#000000" stroke="#000000" points="526.899,-306.2892 537.3723,-304.6889 528.187,-299.4087 526.899,-306.2892"/>
</g>
<!-- Presidency -->
<g id="node23" class="node">
<title>Presidency</title>
<ellipse fill="none" stroke="#000000" cx="329.7739" cy="-207" rx="50.8918" ry="18"/>
<text text-anchor="middle" x="329.7739" y="-203.3" font-family="Times,serif" font-size="14.00" fill="#000000">Presidency</text>
</g>
<!-- Presidency&#45;&gt;Expand SCOTUS -->
<g id="edge28" class="edge">
<title>Presidency&#45;&gt;Expand SCOTUS</title>
<path fill="none" stroke="#000000" d="M372.5424,-216.818C395.8641,-222.0868 425.261,-228.5906 451.5663,-234 475.0658,-238.8324 500.8141,-243.8121 523.873,-248.1584"/>
<polygon fill="#000000" stroke="#000000" points="523.4431,-251.6388 533.9172,-250.0439 524.7346,-244.759 523.4431,-251.6388"/>
</g>
<!-- Presidency&#45;&gt;Expand Federal Courts -->
<g id="edge27" class="edge">
<title>Presidency&#45;&gt;Expand Federal Courts</title>
<path fill="none" stroke="#000000" d="M380.7008,-207C411.2575,-207 451.276,-207 488.3793,-207"/>
<polygon fill="#000000" stroke="#000000" points="488.7568,-210.5001 498.7567,-207 488.7567,-203.5001 488.7568,-210.5001"/>
</g>
<!-- Presidency&#45;&gt;Federal Trifecta -->
<g id="edge29" class="edge">
<title>Presidency&#45;&gt;Federal Trifecta</title>
<path fill="none" stroke="#000000" d="M375.2566,-215.1676C389.1418,-219.2086 403.8271,-225.1892 415.5663,-234 438.6359,-251.3146 427.5204,-272.069 451.5663,-288 470.2948,-300.408 493.2819,-307.4444 515.2759,-311.3471"/>
<polygon fill="#000000" stroke="#000000" points="514.8692,-314.8262 525.2926,-312.9278 515.9604,-307.9117 514.8692,-314.8262"/>
</g>
<!-- Get Out The Vote! -->
<g id="node24" class="node">
<title>Get Out The Vote!</title>
<ellipse fill="none" stroke="#000000" cx="103.9908" cy="-234" rx="103.9815" ry="103.9815"/>
<text text-anchor="middle" x="103.9908" y="-230.3" font-family="Menlo bold italic" font-size="14.00" fill="#000000">Get Out The Vote!</text>
</g>
<!-- Get Out The Vote!&#45;&gt;More State Trifectas -->
<g id="edge9" class="edge">
<title>Get Out The Vote!&#45;&gt;More State Trifectas</title>
<path fill="none" stroke="#000000" d="M200.8448,-195.7273C215.252,-190.2998 229.9662,-184.903 243.9815,-180 252.6406,-176.9708 261.8437,-173.9099 270.8851,-170.9915"/>
<polygon fill="#000000" stroke="#000000" points="272.1381,-174.2655 280.5991,-167.8888 270.0082,-167.5974 272.1381,-174.2655"/>
</g>
<!-- Get Out The Vote!&#45;&gt;House Majority -->
<g id="edge8" class="edge">
<title>Get Out The Vote!&#45;&gt;House Majority</title>
<path fill="none" stroke="#000000" d="M200.8448,-272.2727C215.252,-277.7002 229.9662,-283.097 243.9815,-288 253.9222,-291.4776 264.5798,-294.9968 274.8867,-298.2944"/>
<polygon fill="#000000" stroke="#000000" points="274.036,-301.6963 284.6261,-301.3795 276.1499,-295.0231 274.036,-301.6963"/>
</g>
<!-- Get Out The Vote!&#45;&gt;Senate Majority -->
<g id="edge10" class="edge">
<title>Get Out The Vote!&#45;&gt;Senate Majority</title>
<path fill="none" stroke="#000000" d="M207.3012,-246.3543C223.9703,-248.3476 240.9199,-250.3745 256.6825,-252.2594"/>
<polygon fill="#000000" stroke="#000000" points="256.5095,-255.7636 266.8544,-253.4758 257.3407,-248.8131 256.5095,-255.7636"/>
</g>
<!-- Get Out The Vote!&#45;&gt;Presidency -->
<g id="edge11" class="edge">
<title>Get Out The Vote!&#45;&gt;Presidency</title>
<path fill="none" stroke="#000000" d="M207.3012,-221.6457C229.3515,-219.0089 251.8929,-216.3133 271.5277,-213.9653"/>
<polygon fill="#000000" stroke="#000000" points="271.9989,-217.434 281.5125,-212.7713 271.1677,-210.4835 271.9989,-217.434"/>
</g>
</g>
</svg>
